<?xml version="1.0" encoding="utf-8" standalone="no"?>
<!DOCTYPE svg PUBLIC "-//W3C//DTD SVG 1.1//EN"
  "http://www.w3.org/Graphics/SVG/1.1/DTD/svg11.dtd">
<svg xmlns:xlink="http://www.w3.org/1999/xlink" width="1080pt" height="288pt" viewBox="0 0 1080 288" xmlns="http://www.w3.org/2000/svg" version="1.1">
 <metadata>
  <rdf:RDF xmlns:dc="http://purl.org/dc/elements/1.1/" xmlns:cc="http://creativecommons.org/ns#" xmlns:rdf="http://www.w3.org/1999/02/22-rdf-syntax-ns#">
   <cc:Work>
    <dc:type rdf:resource="http://purl.org/dc/dcmitype/StillImage"/>
    <dc:date>2023-02-07T09:21:05.466743</dc:date>
    <dc:format>image/svg+xml</dc:format>
    <dc:creator>
     <cc:Agent>
      <dc:title>Matplotlib v3.5.1, https://matplotlib.org/</dc:title>
     </cc:Agent>
    </dc:creator>
   </cc:Work>
  </rdf:RDF>
 </metadata>
 <defs>
  <style type="text/css">*{stroke-linejoin: round; stroke-linecap: butt}</style>
 </defs>
 <g id="figure_1">
  <g id="patch_1">
   <path d="M 0 288 
L 1080 288 
L 1080 0 
L 0 0 
z
" style="fill: #f0f0f0"/>
  </g>
  <g id="axes_1">
   <g id="patch_2">
    <path d="M 34.62 255.833125 
L 1064.88 255.833125 
L 1064.88 44.24 
L 34.62 44.24 
z
" style="fill: #f0f0f0"/>
   </g>
   <g id="matplotlib.axis_1">
    <g id="xtick_1">
     <g id="text_1">
      <!-- LotFrontage -->
      <g style="fill: #262626" transform="translate(133.746328 270.706719)scale(0.11 -0.11)">
       <defs>
        <path id="ArialMT-4c" d="M 469 0 
L 469 4581 
L 1075 4581 
L 1075 541 
L 3331 541 
L 3331 0 
L 469 0 
z
" transform="scale(0.015625)"/>
        <path id="ArialMT-6f" d="M 213 1659 
Q 213 2581 725 3025 
Q 1153 3394 1769 3394 
Q 2453 3394 2887 2945 
Q 3322 2497 3322 1706 
Q 3322 1066 3130 698 
Q 2938 331 2570 128 
Q 2203 -75 1769 -75 
Q 1072 -75 642 372 
Q 213 819 213 1659 
z
M 791 1659 
Q 791 1022 1069 705 
Q 1347 388 1769 388 
Q 2188 388 2466 706 
Q 2744 1025 2744 1678 
Q 2744 2294 2464 2611 
Q 2184 2928 1769 2928 
Q 1347 2928 1069 2612 
Q 791 2297 791 1659 
z
" transform="scale(0.015625)"/>
        <path id="ArialMT-74" d="M 1650 503 
L 1731 6 
Q 1494 -44 1306 -44 
Q 1000 -44 831 53 
Q 663 150 594 308 
Q 525 466 525 972 
L 525 2881 
L 113 2881 
L 113 3319 
L 525 3319 
L 525 4141 
L 1084 4478 
L 1084 3319 
L 1650 3319 
L 1650 2881 
L 1084 2881 
L 1084 941 
Q 1084 700 1114 631 
Q 1144 563 1211 522 
Q 1278 481 1403 481 
Q 1497 481 1650 503 
z
" transform="scale(0.015625)"/>
        <path id="ArialMT-46" d="M 525 0 
L 525 4581 
L 3616 4581 
L 3616 4041 
L 1131 4041 
L 1131 2622 
L 3281 2622 
L 3281 2081 
L 1131 2081 
L 1131 0 
L 525 0 
z
" transform="scale(0.015625)"/>
        <path id="ArialMT-72" d="M 416 0 
L 416 3319 
L 922 3319 
L 922 2816 
Q 1116 3169 1280 3281 
Q 1444 3394 1641 3394 
Q 1925 3394 2219 3213 
L 2025 2691 
Q 1819 2813 1613 2813 
Q 1428 2813 1281 2702 
Q 1134 2591 1072 2394 
Q 978 2094 978 1738 
L 978 0 
L 416 0 
z
" transform="scale(0.015625)"/>
        <path id="ArialMT-6e" d="M 422 0 
L 422 3319 
L 928 3319 
L 928 2847 
Q 1294 3394 1984 3394 
Q 2284 3394 2536 3286 
Q 2788 3178 2913 3003 
Q 3038 2828 3088 2588 
Q 3119 2431 3119 2041 
L 3119 0 
L 2556 0 
L 2556 2019 
Q 2556 2363 2490 2533 
Q 2425 2703 2258 2804 
Q 2091 2906 1866 2906 
Q 1506 2906 1245 2678 
Q 984 2450 984 1813 
L 984 0 
L 422 0 
z
" transform="scale(0.015625)"/>
        <path id="ArialMT-61" d="M 2588 409 
Q 2275 144 1986 34 
Q 1697 -75 1366 -75 
Q 819 -75 525 192 
Q 231 459 231 875 
Q 231 1119 342 1320 
Q 453 1522 633 1644 
Q 813 1766 1038 1828 
Q 1203 1872 1538 1913 
Q 2219 1994 2541 2106 
Q 2544 2222 2544 2253 
Q 2544 2597 2384 2738 
Q 2169 2928 1744 2928 
Q 1347 2928 1158 2789 
Q 969 2650 878 2297 
L 328 2372 
Q 403 2725 575 2942 
Q 747 3159 1072 3276 
Q 1397 3394 1825 3394 
Q 2250 3394 2515 3294 
Q 2781 3194 2906 3042 
Q 3031 2891 3081 2659 
Q 3109 2516 3109 2141 
L 3109 1391 
Q 3109 606 3145 398 
Q 3181 191 3288 0 
L 2700 0 
Q 2613 175 2588 409 
z
M 2541 1666 
Q 2234 1541 1622 1453 
Q 1275 1403 1131 1340 
Q 988 1278 909 1158 
Q 831 1038 831 891 
Q 831 666 1001 516 
Q 1172 366 1500 366 
Q 1825 366 2078 508 
Q 2331 650 2450 897 
Q 2541 1088 2541 1459 
L 2541 1666 
z
" transform="scale(0.015625)"/>
        <path id="ArialMT-67" d="M 319 -275 
L 866 -356 
Q 900 -609 1056 -725 
Q 1266 -881 1628 -881 
Q 2019 -881 2231 -725 
Q 2444 -569 2519 -288 
Q 2563 -116 2559 434 
Q 2191 0 1641 0 
Q 956 0 581 494 
Q 206 988 206 1678 
Q 206 2153 378 2554 
Q 550 2956 876 3175 
Q 1203 3394 1644 3394 
Q 2231 3394 2613 2919 
L 2613 3319 
L 3131 3319 
L 3131 450 
Q 3131 -325 2973 -648 
Q 2816 -972 2473 -1159 
Q 2131 -1347 1631 -1347 
Q 1038 -1347 672 -1080 
Q 306 -813 319 -275 
z
M 784 1719 
Q 784 1066 1043 766 
Q 1303 466 1694 466 
Q 2081 466 2343 764 
Q 2606 1063 2606 1700 
Q 2606 2309 2336 2618 
Q 2066 2928 1684 2928 
Q 1309 2928 1046 2623 
Q 784 2319 784 1719 
z
" transform="scale(0.015625)"/>
        <path id="ArialMT-65" d="M 2694 1069 
L 3275 997 
Q 3138 488 2766 206 
Q 2394 -75 1816 -75 
Q 1088 -75 661 373 
Q 234 822 234 1631 
Q 234 2469 665 2931 
Q 1097 3394 1784 3394 
Q 2450 3394 2872 2941 
Q 3294 2488 3294 1666 
Q 3294 1616 3291 1516 
L 816 1516 
Q 847 969 1125 678 
Q 1403 388 1819 388 
Q 2128 388 2347 550 
Q 2566 713 2694 1069 
z
M 847 1978 
L 2700 1978 
Q 2663 2397 2488 2606 
Q 2219 2931 1791 2931 
Q 1403 2931 1139 2672 
Q 875 2413 847 1978 
z
" transform="scale(0.015625)"/>
       </defs>
       <use xlink:href="#ArialMT-4c"/>
       <use xlink:href="#ArialMT-6f" x="55.615234"/>
       <use xlink:href="#ArialMT-74" x="111.230469"/>
       <use xlink:href="#ArialMT-46" x="139.013672"/>
       <use xlink:href="#ArialMT-72" x="200.097656"/>
       <use xlink:href="#ArialMT-6f" x="233.398438"/>
       <use xlink:href="#ArialMT-6e" x="289.013672"/>
       <use xlink:href="#ArialMT-74" x="344.628906"/>
       <use xlink:href="#ArialMT-61" x="372.412109"/>
       <use xlink:href="#ArialMT-67" x="428.027344"/>
       <use xlink:href="#ArialMT-65" x="483.642578"/>
      </g>
     </g>
    </g>
    <g id="xtick_2">
     <g id="text_2">
      <!-- MasVnrArea -->
      <g style="fill: #262626" transform="translate(390.402109 270.706719)scale(0.11 -0.11)">
       <defs>
        <path id="ArialMT-4d" d="M 475 0 
L 475 4581 
L 1388 4581 
L 2472 1338 
Q 2622 884 2691 659 
Q 2769 909 2934 1394 
L 4031 4581 
L 4847 4581 
L 4847 0 
L 4263 0 
L 4263 3834 
L 2931 0 
L 2384 0 
L 1059 3900 
L 1059 0 
L 475 0 
z
" transform="scale(0.015625)"/>
        <path id="ArialMT-73" d="M 197 991 
L 753 1078 
Q 800 744 1014 566 
Q 1228 388 1613 388 
Q 2000 388 2187 545 
Q 2375 703 2375 916 
Q 2375 1106 2209 1216 
Q 2094 1291 1634 1406 
Q 1016 1563 777 1677 
Q 538 1791 414 1992 
Q 291 2194 291 2438 
Q 291 2659 392 2848 
Q 494 3038 669 3163 
Q 800 3259 1026 3326 
Q 1253 3394 1513 3394 
Q 1903 3394 2198 3281 
Q 2494 3169 2634 2976 
Q 2775 2784 2828 2463 
L 2278 2388 
Q 2241 2644 2061 2787 
Q 1881 2931 1553 2931 
Q 1166 2931 1000 2803 
Q 834 2675 834 2503 
Q 834 2394 903 2306 
Q 972 2216 1119 2156 
Q 1203 2125 1616 2013 
Q 2213 1853 2448 1751 
Q 2684 1650 2818 1456 
Q 2953 1263 2953 975 
Q 2953 694 2789 445 
Q 2625 197 2315 61 
Q 2006 -75 1616 -75 
Q 969 -75 630 194 
Q 291 463 197 991 
z
" transform="scale(0.015625)"/>
        <path id="ArialMT-56" d="M 1803 0 
L 28 4581 
L 684 4581 
L 1875 1253 
Q 2019 853 2116 503 
Q 2222 878 2363 1253 
L 3600 4581 
L 4219 4581 
L 2425 0 
L 1803 0 
z
" transform="scale(0.015625)"/>
        <path id="ArialMT-41" d="M -9 0 
L 1750 4581 
L 2403 4581 
L 4278 0 
L 3588 0 
L 3053 1388 
L 1138 1388 
L 634 0 
L -9 0 
z
M 1313 1881 
L 2866 1881 
L 2388 3150 
Q 2169 3728 2063 4100 
Q 1975 3659 1816 3225 
L 1313 1881 
z
" transform="scale(0.015625)"/>
       </defs>
       <use xlink:href="#ArialMT-4d"/>
       <use xlink:href="#ArialMT-61" x="83.300781"/>
       <use xlink:href="#ArialMT-73" x="138.916016"/>
       <use xlink:href="#ArialMT-56" x="188.916016"/>
       <use xlink:href="#ArialMT-6e" x="255.615234"/>
       <use xlink:href="#ArialMT-72" x="311.230469"/>
       <use xlink:href="#ArialMT-41" x="344.53125"/>
       <use xlink:href="#ArialMT-72" x="411.230469"/>
       <use xlink:href="#ArialMT-65" x="444.53125"/>
       <use xlink:href="#ArialMT-61" x="500.146484"/>
      </g>
     </g>
    </g>
    <g id="xtick_3">
     <g id="text_3">
      <!-- GarageYrBlt -->
      <g style="fill: #262626" transform="translate(648.270469 270.840781)scale(0.11 -0.11)">
       <defs>
        <path id="ArialMT-47" d="M 2638 1797 
L 2638 2334 
L 4578 2338 
L 4578 638 
Q 4131 281 3656 101 
Q 3181 -78 2681 -78 
Q 2006 -78 1454 211 
Q 903 500 622 1047 
Q 341 1594 341 2269 
Q 341 2938 620 3517 
Q 900 4097 1425 4378 
Q 1950 4659 2634 4659 
Q 3131 4659 3532 4498 
Q 3934 4338 4162 4050 
Q 4391 3763 4509 3300 
L 3963 3150 
Q 3859 3500 3706 3700 
Q 3553 3900 3268 4020 
Q 2984 4141 2638 4141 
Q 2222 4141 1919 4014 
Q 1616 3888 1430 3681 
Q 1244 3475 1141 3228 
Q 966 2803 966 2306 
Q 966 1694 1177 1281 
Q 1388 869 1791 669 
Q 2194 469 2647 469 
Q 3041 469 3416 620 
Q 3791 772 3984 944 
L 3984 1797 
L 2638 1797 
z
" transform="scale(0.015625)"/>
        <path id="ArialMT-59" d="M 1784 0 
L 1784 1941 
L 19 4581 
L 756 4581 
L 1659 3200 
Q 1909 2813 2125 2425 
Q 2331 2784 2625 3234 
L 3513 4581 
L 4219 4581 
L 2391 1941 
L 2391 0 
L 1784 0 
z
" transform="scale(0.015625)"/>
        <path id="ArialMT-42" d="M 469 0 
L 469 4581 
L 2188 4581 
Q 2713 4581 3030 4442 
Q 3347 4303 3526 4014 
Q 3706 3725 3706 3409 
Q 3706 3116 3547 2856 
Q 3388 2597 3066 2438 
Q 3481 2316 3704 2022 
Q 3928 1728 3928 1328 
Q 3928 1006 3792 729 
Q 3656 453 3456 303 
Q 3256 153 2954 76 
Q 2653 0 2216 0 
L 469 0 
z
M 1075 2656 
L 2066 2656 
Q 2469 2656 2644 2709 
Q 2875 2778 2992 2937 
Q 3109 3097 3109 3338 
Q 3109 3566 3000 3739 
Q 2891 3913 2687 3977 
Q 2484 4041 1991 4041 
L 1075 4041 
L 1075 2656 
z
M 1075 541 
L 2216 541 
Q 2509 541 2628 563 
Q 2838 600 2978 687 
Q 3119 775 3209 942 
Q 3300 1109 3300 1328 
Q 3300 1584 3169 1773 
Q 3038 1963 2805 2039 
Q 2572 2116 2134 2116 
L 1075 2116 
L 1075 541 
z
" transform="scale(0.015625)"/>
        <path id="ArialMT-6c" d="M 409 0 
L 409 4581 
L 972 4581 
L 972 0 
L 409 0 
z
" transform="scale(0.015625)"/>
       </defs>
       <use xlink:href="#ArialMT-47"/>
       <use xlink:href="#ArialMT-61" x="77.783203"/>
       <use xlink:href="#ArialMT-72" x="133.398438"/>
       <use xlink:href="#ArialMT-61" x="166.699219"/>
       <use xlink:href="#ArialMT-67" x="222.314453"/>
       <use xlink:href="#ArialMT-65" x="277.929688"/>
       <use xlink:href="#ArialMT-59" x="333.544922"/>
       <use xlink:href="#ArialMT-72" x="400.244141"/>
       <use xlink:href="#ArialMT-42" x="433.544922"/>
       <use xlink:href="#ArialMT-6c" x="500.244141"/>
       <use xlink:href="#ArialMT-74" x="522.460938"/>
      </g>
     </g>
    </g>
    <g id="xtick_4">
     <g id="text_4">
      <!-- SalePrice -->
      <g style="fill: #262626" transform="translate(912.559219 270.706719)scale(0.11 -0.11)">
       <defs>
        <path id="ArialMT-53" d="M 288 1472 
L 859 1522 
Q 900 1178 1048 958 
Q 1197 738 1509 602 
Q 1822 466 2213 466 
Q 2559 466 2825 569 
Q 3091 672 3220 851 
Q 3350 1031 3350 1244 
Q 3350 1459 3225 1620 
Q 3100 1781 2813 1891 
Q 2628 1963 1997 2114 
Q 1366 2266 1113 2400 
Q 784 2572 623 2826 
Q 463 3081 463 3397 
Q 463 3744 659 4045 
Q 856 4347 1234 4503 
Q 1613 4659 2075 4659 
Q 2584 4659 2973 4495 
Q 3363 4331 3572 4012 
Q 3781 3694 3797 3291 
L 3216 3247 
Q 3169 3681 2898 3903 
Q 2628 4125 2100 4125 
Q 1550 4125 1298 3923 
Q 1047 3722 1047 3438 
Q 1047 3191 1225 3031 
Q 1400 2872 2139 2705 
Q 2878 2538 3153 2413 
Q 3553 2228 3743 1945 
Q 3934 1663 3934 1294 
Q 3934 928 3725 604 
Q 3516 281 3123 101 
Q 2731 -78 2241 -78 
Q 1619 -78 1198 103 
Q 778 284 539 648 
Q 300 1013 288 1472 
z
" transform="scale(0.015625)"/>
        <path id="ArialMT-50" d="M 494 0 
L 494 4581 
L 2222 4581 
Q 2678 4581 2919 4538 
Q 3256 4481 3484 4323 
Q 3713 4166 3852 3881 
Q 3991 3597 3991 3256 
Q 3991 2672 3619 2267 
Q 3247 1863 2275 1863 
L 1100 1863 
L 1100 0 
L 494 0 
z
M 1100 2403 
L 2284 2403 
Q 2872 2403 3119 2622 
Q 3366 2841 3366 3238 
Q 3366 3525 3220 3729 
Q 3075 3934 2838 4000 
Q 2684 4041 2272 4041 
L 1100 4041 
L 1100 2403 
z
" transform="scale(0.015625)"/>
        <path id="ArialMT-69" d="M 425 3934 
L 425 4581 
L 988 4581 
L 988 3934 
L 425 3934 
z
M 425 0 
L 425 3319 
L 988 3319 
L 988 0 
L 425 0 
z
" transform="scale(0.015625)"/>
        <path id="ArialMT-63" d="M 2588 1216 
L 3141 1144 
Q 3050 572 2676 248 
Q 2303 -75 1759 -75 
Q 1078 -75 664 370 
Q 250 816 250 1647 
Q 250 2184 428 2587 
Q 606 2991 970 3192 
Q 1334 3394 1763 3394 
Q 2303 3394 2647 3120 
Q 2991 2847 3088 2344 
L 2541 2259 
Q 2463 2594 2264 2762 
Q 2066 2931 1784 2931 
Q 1359 2931 1093 2626 
Q 828 2322 828 1663 
Q 828 994 1084 691 
Q 1341 388 1753 388 
Q 2084 388 2306 591 
Q 2528 794 2588 1216 
z
" transform="scale(0.015625)"/>
       </defs>
       <use xlink:href="#ArialMT-53"/>
       <use xlink:href="#ArialMT-61" x="66.699219"/>
       <use xlink:href="#ArialMT-6c" x="122.314453"/>
       <use xlink:href="#ArialMT-65" x="144.53125"/>
       <use xlink:href="#ArialMT-50" x="200.146484"/>
       <use xlink:href="#ArialMT-72" x="266.845703"/>
       <use xlink:href="#ArialMT-69" x="300.146484"/>
       <use xlink:href="#ArialMT-63" x="322.363281"/>
       <use xlink:href="#ArialMT-65" x="372.363281"/>
      </g>
     </g>
    </g>
   </g>
   <g id="matplotlib.axis_2">
    <g id="ytick_1">
     <g id="line2d_1">
      <path d="M 34.62 250.965719 
L 1064.88 250.965719 
" clip-path="url(#p1d1e38e9c2)" style="fill: none; stroke: #cbcbcb"/>
     </g>
     <g id="text_5">
      <!-- −4 -->
      <g style="fill: #262626" transform="translate(15.078281 254.902516)scale(0.11 -0.11)">
       <defs>
        <path id="ArialMT-2212" d="M 3381 1997 
L 356 1997 
L 356 2522 
L 3381 2522 
L 3381 1997 
z
" transform="scale(0.015625)"/>
        <path id="ArialMT-34" d="M 2069 0 
L 2069 1097 
L 81 1097 
L 81 1613 
L 2172 4581 
L 2631 4581 
L 2631 1613 
L 3250 1613 
L 3250 1097 
L 2631 1097 
L 2631 0 
L 2069 0 
z
M 2069 1613 
L 2069 3678 
L 634 1613 
L 2069 1613 
z
" transform="scale(0.015625)"/>
       </defs>
       <use xlink:href="#ArialMT-2212"/>
       <use xlink:href="#ArialMT-34" x="58.398438"/>
      </g>
     </g>
    </g>
    <g id="ytick_2">
     <g id="line2d_2">
      <path d="M 34.62 223.756906 
L 1064.88 223.756906 
" clip-path="url(#p1d1e38e9c2)" style="fill: none; stroke: #cbcbcb"/>
     </g>
     <g id="text_6">
      <!-- −2 -->
      <g style="fill: #262626" transform="translate(15.078281 227.693702)scale(0.11 -0.11)">
       <defs>
        <path id="ArialMT-32" d="M 3222 541 
L 3222 0 
L 194 0 
Q 188 203 259 391 
Q 375 700 629 1000 
Q 884 1300 1366 1694 
Q 2113 2306 2375 2664 
Q 2638 3022 2638 3341 
Q 2638 3675 2398 3904 
Q 2159 4134 1775 4134 
Q 1369 4134 1125 3890 
Q 881 3647 878 3216 
L 300 3275 
Q 359 3922 746 4261 
Q 1134 4600 1788 4600 
Q 2447 4600 2831 4234 
Q 3216 3869 3216 3328 
Q 3216 3053 3103 2787 
Q 2991 2522 2730 2228 
Q 2469 1934 1863 1422 
Q 1356 997 1212 845 
Q 1069 694 975 541 
L 3222 541 
z
" transform="scale(0.015625)"/>
       </defs>
       <use xlink:href="#ArialMT-2212"/>
       <use xlink:href="#ArialMT-32" x="58.398438"/>
      </g>
     </g>
    </g>
    <g id="ytick_3">
     <g id="line2d_3">
      <path d="M 34.62 196.548092 
L 1064.88 196.548092 
" clip-path="url(#p1d1e38e9c2)" style="fill: none; stroke: #cbcbcb"/>
     </g>
     <g id="text_7">
      <!-- 0 -->
      <g style="fill: #262626" transform="translate(21.502969 200.484889)scale(0.11 -0.11)">
       <defs>
        <path id="ArialMT-30" d="M 266 2259 
Q 266 3072 433 3567 
Q 600 4063 929 4331 
Q 1259 4600 1759 4600 
Q 2128 4600 2406 4451 
Q 2684 4303 2865 4023 
Q 3047 3744 3150 3342 
Q 3253 2941 3253 2259 
Q 3253 1453 3087 958 
Q 2922 463 2592 192 
Q 2263 -78 1759 -78 
Q 1097 -78 719 397 
Q 266 969 266 2259 
z
M 844 2259 
Q 844 1131 1108 757 
Q 1372 384 1759 384 
Q 2147 384 2411 759 
Q 2675 1134 2675 2259 
Q 2675 3391 2411 3762 
Q 2147 4134 1753 4134 
Q 1366 4134 1134 3806 
Q 844 3388 844 2259 
z
" transform="scale(0.015625)"/>
       </defs>
       <use xlink:href="#ArialMT-30"/>
      </g>
     </g>
    </g>
    <g id="ytick_4">
     <g id="line2d_4">
      <path d="M 34.62 169.339278 
L 1064.88 169.339278 
" clip-path="url(#p1d1e38e9c2)" style="fill: none; stroke: #cbcbcb"/>
     </g>
     <g id="text_8">
      <!-- 2 -->
      <g style="fill: #262626" transform="translate(21.502969 173.276075)scale(0.11 -0.11)">
       <use xlink:href="#ArialMT-32"/>
      </g>
     </g>
    </g>
    <g id="ytick_5">
     <g id="line2d_5">
      <path d="M 34.62 142.130464 
L 1064.88 142.130464 
" clip-path="url(#p1d1e38e9c2)" style="fill: none; stroke: #cbcbcb"/>
     </g>
     <g id="text_9">
      <!-- 4 -->
      <g style="fill: #262626" transform="translate(21.502969 146.067261)scale(0.11 -0.11)">
       <use xlink:href="#ArialMT-34"/>
      </g>
     </g>
    </g>
    <g id="ytick_6">
     <g id="line2d_6">
      <path d="M 34.62 114.92165 
L 1064.88 114.92165 
" clip-path="url(#p1d1e38e9c2)" style="fill: none; stroke: #cbcbcb"/>
     </g>
     <g id="text_10">
      <!-- 6 -->
      <g style="fill: #262626" transform="translate(21.502969 118.858447)scale(0.11 -0.11)">
       <defs>
        <path id="ArialMT-36" d="M 3184 3459 
L 2625 3416 
Q 2550 3747 2413 3897 
Q 2184 4138 1850 4138 
Q 1581 4138 1378 3988 
Q 1113 3794 959 3422 
Q 806 3050 800 2363 
Q 1003 2672 1297 2822 
Q 1591 2972 1913 2972 
Q 2475 2972 2870 2558 
Q 3266 2144 3266 1488 
Q 3266 1056 3080 686 
Q 2894 316 2569 119 
Q 2244 -78 1831 -78 
Q 1128 -78 684 439 
Q 241 956 241 2144 
Q 241 3472 731 4075 
Q 1159 4600 1884 4600 
Q 2425 4600 2770 4297 
Q 3116 3994 3184 3459 
z
M 888 1484 
Q 888 1194 1011 928 
Q 1134 663 1356 523 
Q 1578 384 1822 384 
Q 2178 384 2434 671 
Q 2691 959 2691 1453 
Q 2691 1928 2437 2201 
Q 2184 2475 1800 2475 
Q 1419 2475 1153 2201 
Q 888 1928 888 1484 
z
" transform="scale(0.015625)"/>
       </defs>
       <use xlink:href="#ArialMT-36"/>
      </g>
     </g>
    </g>
    <g id="ytick_7">
     <g id="line2d_7">
      <path d="M 34.62 87.712837 
L 1064.88 87.712837 
" clip-path="url(#p1d1e38e9c2)" style="fill: none; stroke: #cbcbcb"/>
     </g>
     <g id="text_11">
      <!-- 8 -->
      <g style="fill: #262626" transform="translate(21.502969 91.649634)scale(0.11 -0.11)">
       <defs>
        <path id="ArialMT-38" d="M 1131 2484 
Q 781 2613 612 2850 
Q 444 3088 444 3419 
Q 444 3919 803 4259 
Q 1163 4600 1759 4600 
Q 2359 4600 2725 4251 
Q 3091 3903 3091 3403 
Q 3091 3084 2923 2848 
Q 2756 2613 2416 2484 
Q 2838 2347 3058 2040 
Q 3278 1734 3278 1309 
Q 3278 722 2862 322 
Q 2447 -78 1769 -78 
Q 1091 -78 675 323 
Q 259 725 259 1325 
Q 259 1772 486 2073 
Q 713 2375 1131 2484 
z
M 1019 3438 
Q 1019 3113 1228 2906 
Q 1438 2700 1772 2700 
Q 2097 2700 2305 2904 
Q 2513 3109 2513 3406 
Q 2513 3716 2298 3927 
Q 2084 4138 1766 4138 
Q 1444 4138 1231 3931 
Q 1019 3725 1019 3438 
z
M 838 1322 
Q 838 1081 952 856 
Q 1066 631 1291 507 
Q 1516 384 1775 384 
Q 2178 384 2440 643 
Q 2703 903 2703 1303 
Q 2703 1709 2433 1975 
Q 2163 2241 1756 2241 
Q 1359 2241 1098 1978 
Q 838 1716 838 1322 
z
" transform="scale(0.015625)"/>
       </defs>
       <use xlink:href="#ArialMT-38"/>
      </g>
     </g>
    </g>
    <g id="ytick_8">
     <g id="line2d_8">
      <path d="M 34.62 60.504023 
L 1064.88 60.504023 
" clip-path="url(#p1d1e38e9c2)" style="fill: none; stroke: #cbcbcb"/>
     </g>
     <g id="text_12">
      <!-- 10 -->
      <g style="fill: #262626" transform="translate(15.385937 64.44082)scale(0.11 -0.11)">
       <defs>
        <path id="ArialMT-31" d="M 2384 0 
L 1822 0 
L 1822 3584 
Q 1619 3391 1289 3197 
Q 959 3003 697 2906 
L 697 3450 
Q 1169 3672 1522 3987 
Q 1875 4303 2022 4600 
L 2384 4600 
L 2384 0 
z
" transform="scale(0.015625)"/>
       </defs>
       <use xlink:href="#ArialMT-31"/>
       <use xlink:href="#ArialMT-30" x="55.615234"/>
      </g>
     </g>
    </g>
   </g>
   <g id="PolyCollection_1">
    <defs>
     <path id="mc5c33a6367" d="M 164.499788 -57.385223 
L 162.305212 -57.385223 
L 160.39877 -59.170646 
L 157.129228 -60.956069 
L 153.26087 -62.741492 
L 150.296679 -64.526916 
L 148.913891 -66.312339 
L 148.111572 -68.097762 
L 146.478645 -69.883186 
L 143.639446 -71.668609 
L 139.788045 -73.454032 
L 134.484117 -75.239456 
L 126.79666 -77.024879 
L 116.442685 -78.810302 
L 103.906837 -80.595726 
L 89.737535 -82.381149 
L 75.491711 -84.166572 
L 64.766669 -85.951996 
L 60.3765 -87.737419 
L 61.118599 -89.522842 
L 63.727002 -91.308265 
L 66.786297 -93.093689 
L 71.312609 -94.879112 
L 78.802027 -96.664535 
L 89.424074 -98.449959 
L 101.62236 -100.235382 
L 113.289792 -102.020805 
L 123.123928 -103.806229 
L 130.869356 -105.591652 
L 136.880925 -107.377075 
L 141.720736 -109.162499 
L 145.84898 -110.947922 
L 149.437191 -112.733345 
L 152.373538 -114.518769 
L 154.478661 -116.304192 
L 155.844281 -118.089615 
L 156.874705 -119.875039 
L 157.888464 -121.660462 
L 158.86877 -123.445885 
L 159.681806 -125.231308 
L 160.308863 -127.016732 
L 160.807775 -128.802155 
L 161.213375 -130.587578 
L 161.517351 -132.373002 
L 161.712094 -134.158425 
L 161.855245 -135.943848 
L 162.044692 -137.729272 
L 162.304297 -139.514695 
L 162.5527 -141.300118 
L 162.695712 -143.085542 
L 162.705341 -144.870965 
L 162.628186 -146.656388 
L 162.556 -148.441812 
L 162.568155 -150.227235 
L 162.679195 -152.012658 
L 162.849146 -153.798082 
L 163.03141 -155.583505 
L 163.191356 -157.368928 
L 163.304972 -159.154351 
L 163.367244 -160.939775 
L 163.392754 -162.725198 
L 163.400466 -164.510621 
L 163.402182 -166.296045 
L 163.402463 -168.081468 
L 163.402497 -169.866891 
L 163.4025 -171.652315 
L 163.4025 -173.437738 
L 163.4025 -175.223161 
L 163.4025 -177.008585 
L 163.4025 -178.794008 
L 163.4025 -180.579431 
L 163.4025 -182.364855 
L 163.4025 -184.150278 
L 163.4025 -185.935701 
L 163.4025 -187.721124 
L 163.4025 -189.506548 
L 163.4025 -191.291971 
L 163.4025 -193.077394 
L 163.4025 -194.862818 
L 163.4025 -196.648241 
L 163.4025 -198.433664 
L 163.4025 -200.219088 
L 163.4025 -202.004511 
L 163.4025 -203.789934 
L 163.4025 -205.575358 
L 163.4025 -207.360781 
L 163.4025 -209.146204 
L 163.402498 -210.931628 
L 163.402478 -212.717051 
L 163.402282 -214.502474 
L 163.400893 -216.287898 
L 163.393644 -218.073321 
L 163.366126 -219.858744 
L 163.291131 -221.644167 
L 163.148297 -223.429591 
L 162.969953 -225.215014 
L 162.853814 -227.000437 
L 162.88364 -228.785861 
L 163.036725 -230.571284 
L 163.210273 -232.356707 
L 163.32719 -234.142131 
L 163.47781 -234.142131 
L 163.47781 -234.142131 
L 163.594727 -232.356707 
L 163.768275 -230.571284 
L 163.92136 -228.785861 
L 163.951186 -227.000437 
L 163.835047 -225.215014 
L 163.656703 -223.429591 
L 163.513869 -221.644167 
L 163.438874 -219.858744 
L 163.411356 -218.073321 
L 163.404107 -216.287898 
L 163.402718 -214.502474 
L 163.402522 -212.717051 
L 163.402502 -210.931628 
L 163.4025 -209.146204 
L 163.4025 -207.360781 
L 163.4025 -205.575358 
L 163.4025 -203.789934 
L 163.4025 -202.004511 
L 163.4025 -200.219088 
L 163.4025 -198.433664 
L 163.4025 -196.648241 
L 163.4025 -194.862818 
L 163.4025 -193.077394 
L 163.4025 -191.291971 
L 163.4025 -189.506548 
L 163.4025 -187.721124 
L 163.4025 -185.935701 
L 163.4025 -184.150278 
L 163.4025 -182.364855 
L 163.4025 -180.579431 
L 163.4025 -178.794008 
L 163.4025 -177.008585 
L 163.4025 -175.223161 
L 163.4025 -173.437738 
L 163.4025 -171.652315 
L 163.402503 -169.866891 
L 163.402537 -168.081468 
L 163.402818 -166.296045 
L 163.404534 -164.510621 
L 163.412246 -162.725198 
L 163.437756 -160.939775 
L 163.500028 -159.154351 
L 163.613644 -157.368928 
L 163.77359 -155.583505 
L 163.955854 -153.798082 
L 164.125805 -152.012658 
L 164.236845 -150.227235 
L 164.249 -148.441812 
L 164.176814 -146.656388 
L 164.099659 -144.870965 
L 164.109288 -143.085542 
L 164.2523 -141.300118 
L 164.500703 -139.514695 
L 164.760308 -137.729272 
L 164.949755 -135.943848 
L 165.092906 -134.158425 
L 165.287649 -132.373002 
L 165.591625 -130.587578 
L 165.997225 -128.802155 
L 166.496137 -127.016732 
L 167.123194 -125.231308 
L 167.93623 -123.445885 
L 168.916536 -121.660462 
L 169.930295 -119.875039 
L 170.960719 -118.089615 
L 172.326339 -116.304192 
L 174.431462 -114.518769 
L 177.367809 -112.733345 
L 180.95602 -110.947922 
L 185.084264 -109.162499 
L 189.924075 -107.377075 
L 195.935644 -105.591652 
L 203.681072 -103.806229 
L 213.515208 -102.020805 
L 225.18264 -100.235382 
L 237.380926 -98.449959 
L 248.002973 -96.664535 
L 255.492391 -94.879112 
L 260.018703 -93.093689 
L 263.077998 -91.308265 
L 265.686401 -89.522842 
L 266.4285 -87.737419 
L 262.038331 -85.951996 
L 251.313289 -84.166572 
L 237.067465 -82.381149 
L 222.898163 -80.595726 
L 210.362315 -78.810302 
L 200.00834 -77.024879 
L 192.320883 -75.239456 
L 187.016955 -73.454032 
L 183.165554 -71.668609 
L 180.326355 -69.883186 
L 178.693428 -68.097762 
L 177.891109 -66.312339 
L 176.508321 -64.526916 
L 173.54413 -62.741492 
L 169.675772 -60.956069 
L 166.40623 -59.170646 
L 164.499788 -57.385223 
z
" style="stroke: #484848; stroke-width: 3"/>
    </defs>
    <g clip-path="url(#p1d1e38e9c2)">
     <use xlink:href="#mc5c33a6367" x="0" y="288" style="fill: #cb3335; stroke: #484848; stroke-width: 3"/>
    </g>
   </g>
   <g id="PolyCollection_2">
    <defs>
     <path id="m460476fad6" d="M 434.339345 -77.318202 
L 407.595655 -77.318202 
L 392.369042 -78.660653 
L 369.757379 -80.003104 
L 344.107804 -81.345554 
L 324.077605 -82.688005 
L 317.9415 -84.030455 
L 327.717933 -85.372906 
L 347.693223 -86.715356 
L 368.856773 -88.057807 
L 384.783997 -89.400258 
L 393.97235 -90.742708 
L 398.204016 -92.085159 
L 399.888032 -93.427609 
L 400.658533 -94.77006 
L 401.301363 -96.112511 
L 402.107679 -97.454961 
L 403.11122 -98.797412 
L 404.204368 -100.139862 
L 405.25001 -101.482313 
L 406.183372 -102.824763 
L 407.041797 -104.167214 
L 407.920659 -105.509665 
L 408.909485 -106.852115 
L 410.048436 -108.194566 
L 411.304827 -109.537016 
L 412.565757 -110.879467 
L 413.670667 -112.221918 
L 414.497901 -113.564368 
L 415.053455 -114.906819 
L 415.475725 -116.249269 
L 415.937505 -117.59172 
L 416.526278 -118.93417 
L 417.198929 -120.276621 
L 417.831152 -121.619072 
L 418.307041 -122.961522 
L 418.582802 -124.303973 
L 418.694109 -125.646423 
L 418.71844 -126.988874 
L 418.729101 -128.331325 
L 418.774507 -129.673775 
L 418.884295 -131.016226 
L 419.074026 -132.358676 
L 419.330807 -133.701127 
L 419.600479 -135.043577 
L 419.80764 -136.386028 
L 419.904093 -137.728479 
L 419.904813 -139.070929 
L 419.877926 -140.41338 
L 419.896017 -141.75583 
L 419.98826 -143.098281 
L 420.129059 -144.440732 
L 420.266069 -145.783182 
L 420.359828 -147.125633 
L 420.404586 -148.468083 
L 420.421929 -149.810534 
L 420.44026 -151.152984 
L 420.477141 -152.495435 
L 420.532668 -153.837886 
L 420.593378 -155.180336 
L 420.642232 -156.522787 
L 420.668804 -157.865237 
L 420.674605 -159.207688 
L 420.670787 -160.550139 
L 420.668965 -161.892589 
L 420.671641 -163.23504 
L 420.67185 -164.57749 
L 420.663684 -165.919941 
L 420.652319 -167.262391 
L 420.651975 -168.604842 
L 420.674526 -169.947293 
L 420.720915 -171.289743 
L 420.781705 -172.632194 
L 420.843367 -173.974644 
L 420.89464 -175.317095 
L 420.930018 -176.659546 
L 420.949609 -178.001996 
L 420.956176 -179.344447 
L 420.95181 -180.686897 
L 420.936947 -182.029348 
L 420.912634 -183.371798 
L 420.884066 -184.714249 
L 420.861265 -186.0567 
L 420.854397 -187.39915 
L 420.866832 -188.741601 
L 420.89259 -190.084051 
L 420.920859 -191.426502 
L 420.943028 -192.768953 
L 420.955979 -194.111403 
L 420.960342 -195.453854 
L 420.956963 -196.796304 
L 420.945153 -198.138755 
L 420.924072 -199.481205 
L 420.896198 -200.823656 
L 420.869521 -202.166107 
L 420.854933 -203.508557 
L 420.859384 -204.851008 
L 420.880691 -206.193458 
L 420.909231 -207.535909 
L 420.934804 -208.87836 
L 420.952162 -210.22081 
L 420.982838 -210.22081 
L 420.982838 -210.22081 
L 421.000196 -208.87836 
L 421.025769 -207.535909 
L 421.054309 -206.193458 
L 421.075616 -204.851008 
L 421.080067 -203.508557 
L 421.065479 -202.166107 
L 421.038802 -200.823656 
L 421.010928 -199.481205 
L 420.989847 -198.138755 
L 420.978037 -196.796304 
L 420.974658 -195.453854 
L 420.979021 -194.111403 
L 420.991972 -192.768953 
L 421.014141 -191.426502 
L 421.04241 -190.084051 
L 421.068168 -188.741601 
L 421.080603 -187.39915 
L 421.073735 -186.0567 
L 421.050934 -184.714249 
L 421.022366 -183.371798 
L 420.998053 -182.029348 
L 420.98319 -180.686897 
L 420.978824 -179.344447 
L 420.985391 -178.001996 
L 421.004982 -176.659546 
L 421.04036 -175.317095 
L 421.091633 -173.974644 
L 421.153295 -172.632194 
L 421.214085 -171.289743 
L 421.260474 -169.947293 
L 421.283025 -168.604842 
L 421.282681 -167.262391 
L 421.271316 -165.919941 
L 421.26315 -164.57749 
L 421.263359 -163.23504 
L 421.266035 -161.892589 
L 421.264213 -160.550139 
L 421.260395 -159.207688 
L 421.266196 -157.865237 
L 421.292768 -156.522787 
L 421.341622 -155.180336 
L 421.402332 -153.837886 
L 421.457859 -152.495435 
L 421.49474 -151.152984 
L 421.513071 -149.810534 
L 421.530414 -148.468083 
L 421.575172 -147.125633 
L 421.668931 -145.783182 
L 421.805941 -144.440732 
L 421.94674 -143.098281 
L 422.038983 -141.75583 
L 422.057074 -140.41338 
L 422.030187 -139.070929 
L 422.030907 -137.728479 
L 422.12736 -136.386028 
L 422.334521 -135.043577 
L 422.604193 -133.701127 
L 422.860974 -132.358676 
L 423.050705 -131.016226 
L 423.160493 -129.673775 
L 423.205899 -128.331325 
L 423.21656 -126.988874 
L 423.240891 -125.646423 
L 423.352198 -124.303973 
L 423.627959 -122.961522 
L 424.103848 -121.619072 
L 424.736071 -120.276621 
L 425.408722 -118.93417 
L 425.997495 -117.59172 
L 426.459275 -116.249269 
L 426.881545 -114.906819 
L 427.437099 -113.564368 
L 428.264333 -112.221918 
L 429.369243 -110.879467 
L 430.630173 -109.537016 
L 431.886564 -108.194566 
L 433.025515 -106.852115 
L 434.014341 -105.509665 
L 434.893203 -104.167214 
L 435.751628 -102.824763 
L 436.68499 -101.482313 
L 437.730632 -100.139862 
L 438.82378 -98.797412 
L 439.827321 -97.454961 
L 440.633637 -96.112511 
L 441.276467 -94.77006 
L 442.046968 -93.427609 
L 443.730984 -92.085159 
L 447.96265 -90.742708 
L 457.151003 -89.400258 
L 473.078227 -88.057807 
L 494.241777 -86.715356 
L 514.217067 -85.372906 
L 523.9935 -84.030455 
L 517.857395 -82.688005 
L 497.827196 -81.345554 
L 472.177621 -80.003104 
L 449.565958 -78.660653 
L 434.339345 -77.318202 
z
" style="stroke: #484848; stroke-width: 3"/>
    </defs>
    <g clip-path="url(#p1d1e38e9c2)">
     <use xlink:href="#m460476fad6" x="0" y="288" style="fill: #477ca8; stroke: #484848; stroke-width: 3"/>
    </g>
   </g>
   <g id="PolyCollection_3">
    <defs>
     <path id="mad51bdb2d0" d="M 678.567668 -41.784744 
L 678.497332 -41.784744 
L 678.476089 -42.52646 
L 678.445748 -43.268175 
L 678.404175 -44.009891 
L 678.349186 -44.751606 
L 678.278444 -45.493322 
L 678.189182 -46.235037 
L 678.077789 -46.976753 
L 677.939374 -47.718468 
L 677.76739 -48.460184 
L 677.553395 -49.201899 
L 677.286924 -49.943615 
L 676.955442 -50.68533 
L 676.544439 -51.427046 
L 676.037899 -52.168761 
L 675.419548 -52.910477 
L 674.675278 -53.652192 
L 673.796829 -54.393908 
L 672.786291 -55.135623 
L 671.660346 -55.877339 
L 670.452804 -56.619054 
L 669.214051 -57.36077 
L 668.006675 -58.102485 
L 666.897526 -58.844201 
L 665.947565 -59.585916 
L 665.201562 -60.327632 
L 664.679881 -61.069347 
L 664.374146 -61.811063 
L 664.247783 -62.552778 
L 664.241533 -63.294493 
L 664.28313 -64.036209 
L 664.29959 -64.777924 
L 664.22973 -65.51964 
L 664.033907 -66.261355 
L 663.697874 -67.003071 
L 663.22862 -67.744786 
L 662.642313 -68.486502 
L 661.947562 -69.228217 
L 661.129777 -69.969933 
L 660.14309 -70.711648 
L 658.914161 -71.453364 
L 657.357864 -72.195079 
L 655.400113 -72.936795 
L 653.000284 -73.67851 
L 650.16605 -74.420226 
L 646.956699 -75.161941 
L 643.475334 -75.903657 
L 639.853663 -76.645372 
L 636.234198 -77.387088 
L 632.753817 -78.128803 
L 629.530953 -78.870519 
L 626.657193 -79.612234 
L 624.193295 -80.35395 
L 622.169134 -81.095665 
L 620.586665 -81.837381 
L 619.424628 -82.579096 
L 618.643841 -83.320812 
L 618.19284 -84.062527 
L 618.014796 -84.804243 
L 618.057086 -85.545958 
L 618.283688 -86.287674 
L 618.687728 -87.029389 
L 619.298656 -87.771105 
L 620.17769 -88.51282 
L 621.397971 -89.254536 
L 623.011866 -89.996251 
L 625.014549 -90.737967 
L 627.316737 -91.479682 
L 629.73796 -92.221398 
L 632.024848 -92.963113 
L 633.889796 -93.704828 
L 635.057945 -94.446544 
L 635.308087 -95.188259 
L 634.496589 -95.929975 
L 632.560715 -96.67169 
L 629.505626 -97.413406 
L 625.384812 -98.155121 
L 620.285306 -98.896837 
L 614.326761 -99.638552 
L 607.678208 -100.380268 
L 600.589146 -101.121983 
L 593.424065 -101.863699 
L 586.683446 -102.605414 
L 580.992766 -103.34713 
L 577.046419 -104.088845 
L 575.5065 -104.830561 
L 576.873908 -105.572276 
L 581.364616 -106.313992 
L 588.829702 -107.055707 
L 598.74916 -107.797423 
L 610.308214 -108.539138 
L 622.538604 -109.280854 
L 634.48674 -110.022569 
L 645.364047 -110.764285 
L 654.644032 -111.506 
L 662.090748 -112.247716 
L 667.725253 -112.989431 
L 671.752284 -113.731147 
L 674.474407 -114.472862 
L 676.216352 -115.214578 
L 680.848648 -115.214578 
L 680.848648 -115.214578 
L 682.590593 -114.472862 
L 685.312716 -113.731147 
L 689.339747 -112.989431 
L 694.974252 -112.247716 
L 702.420968 -111.506 
L 711.700953 -110.764285 
L 722.57826 -110.022569 
L 734.526396 -109.280854 
L 746.756786 -108.539138 
L 758.31584 -107.797423 
L 768.235298 -107.055707 
L 775.700384 -106.313992 
L 780.191092 -105.572276 
L 781.5585 -104.830561 
L 780.018581 -104.088845 
L 776.072234 -103.34713 
L 770.381554 -102.605414 
L 763.640935 -101.863699 
L 756.475854 -101.121983 
L 749.386792 -100.380268 
L 742.738239 -99.638552 
L 736.779694 -98.896837 
L 731.680188 -98.155121 
L 727.559374 -97.413406 
L 724.504285 -96.67169 
L 722.568411 -95.929975 
L 721.756913 -95.188259 
L 722.007055 -94.446544 
L 723.175204 -93.704828 
L 725.040152 -92.963113 
L 727.32704 -92.221398 
L 729.748263 -91.479682 
L 732.050451 -90.737967 
L 734.053134 -89.996251 
L 735.667029 -89.254536 
L 736.88731 -88.51282 
L 737.766344 -87.771105 
L 738.377272 -87.029389 
L 738.781312 -86.287674 
L 739.007914 -85.545958 
L 739.050204 -84.804243 
L 738.87216 -84.062527 
L 738.421159 -83.320812 
L 737.640372 -82.579096 
L 736.478335 -81.837381 
L 734.895866 -81.095665 
L 732.871705 -80.35395 
L 730.407807 -79.612234 
L 727.534047 -78.870519 
L 724.311183 -78.128803 
L 720.830802 -77.387088 
L 717.211337 -76.645372 
L 713.589666 -75.903657 
L 710.108301 -75.161941 
L 706.89895 -74.420226 
L 704.064716 -73.67851 
L 701.664887 -72.936795 
L 699.707136 -72.195079 
L 698.150839 -71.453364 
L 696.92191 -70.711648 
L 695.935223 -69.969933 
L 695.117438 -69.228217 
L 694.422687 -68.486502 
L 693.83638 -67.744786 
L 693.367126 -67.003071 
L 693.031093 -66.261355 
L 692.83527 -65.51964 
L 692.76541 -64.777924 
L 692.78187 -64.036209 
L 692.823467 -63.294493 
L 692.817217 -62.552778 
L 692.690854 -61.811063 
L 692.385119 -61.069347 
L 691.863438 -60.327632 
L 691.117435 -59.585916 
L 690.167474 -58.844201 
L 689.058325 -58.102485 
L 687.850949 -57.36077 
L 686.612196 -56.619054 
L 685.404654 -55.877339 
L 684.278709 -55.135623 
L 683.268171 -54.393908 
L 682.389722 -53.652192 
L 681.645452 -52.910477 
L 681.027101 -52.168761 
L 680.520561 -51.427046 
L 680.109558 -50.68533 
L 679.778076 -49.943615 
L 679.511605 -49.201899 
L 679.29761 -48.460184 
L 679.125626 -47.718468 
L 678.987211 -46.976753 
L 678.875818 -46.235037 
L 678.786556 -45.493322 
L 678.715814 -44.751606 
L 678.660825 -44.009891 
L 678.619252 -43.268175 
L 678.588911 -42.52646 
L 678.567668 -41.784744 
z
" style="stroke: #484848; stroke-width: 3"/>
    </defs>
    <g clip-path="url(#p1d1e38e9c2)">
     <use xlink:href="#mad51bdb2d0" x="0" y="288" style="fill: #59a257; stroke: #484848; stroke-width: 3"/>
    </g>
   </g>
   <g id="PolyCollection_4">
    <defs>
     <path id="m8c9e24a7d8" d="M 936.224978 -60.109654 
L 935.970022 -60.109654 
L 935.783107 -61.483277 
L 935.424811 -62.856901 
L 934.821074 -64.230524 
L 933.886768 -65.604148 
L 932.48827 -66.977771 
L 930.391989 -68.351394 
L 927.259529 -69.725018 
L 922.74077 -71.098641 
L 916.624496 -72.472265 
L 908.901765 -73.845888 
L 899.650997 -75.219511 
L 888.897912 -76.593135 
L 876.73081 -77.966758 
L 863.693866 -79.340382 
L 851.09666 -80.714005 
L 840.827214 -82.087629 
L 834.602534 -83.461252 
L 833.0715 -84.834875 
L 835.458239 -86.208499 
L 840.141376 -87.582122 
L 845.758915 -88.955746 
L 851.885014 -90.329369 
L 858.740731 -91.702992 
L 866.380255 -93.076616 
L 874.242122 -94.450239 
L 881.44165 -95.823863 
L 887.392995 -97.197486 
L 892.131061 -98.57111 
L 896.114982 -99.944733 
L 899.789313 -101.318356 
L 903.314593 -102.69198 
L 906.635255 -104.065603 
L 909.710296 -105.439227 
L 912.614096 -106.81285 
L 915.411728 -108.186473 
L 917.994031 -109.560097 
L 920.112185 -110.93372 
L 921.61881 -112.307344 
L 922.664775 -113.680967 
L 923.625416 -115.05459 
L 924.818708 -116.428214 
L 926.285345 -117.801837 
L 927.801284 -119.175461 
L 929.060693 -120.549084 
L 929.871059 -121.922708 
L 930.253314 -123.296331 
L 930.411183 -124.669954 
L 930.597366 -126.043578 
L 930.96732 -127.417201 
L 931.518074 -128.790825 
L 932.136631 -130.164448 
L 932.700961 -131.538071 
L 933.155101 -132.911695 
L 933.516802 -134.285318 
L 933.832469 -135.658942 
L 934.129516 -137.032565 
L 934.40565 -138.406189 
L 934.650829 -139.779812 
L 934.867409 -141.153435 
L 935.067339 -142.527059 
L 935.25765 -143.900682 
L 935.433462 -145.274306 
L 935.580526 -146.647929 
L 935.67983 -148.021552 
L 935.714302 -149.395176 
L 935.680648 -150.768799 
L 935.59963 -152.142423 
L 935.512699 -153.516046 
L 935.462493 -154.88967 
L 935.469605 -156.263293 
L 935.523466 -157.636916 
L 935.59384 -159.01054 
L 935.650809 -160.384163 
L 935.677452 -161.757787 
L 935.67363 -163.13141 
L 935.656479 -164.505033 
L 935.65467 -165.878657 
L 935.692173 -167.25228 
L 935.771327 -168.625904 
L 935.871349 -169.999527 
L 935.963906 -171.373151 
L 936.030718 -172.746774 
L 936.06937 -174.120397 
L 936.087475 -175.494021 
L 936.094088 -176.867644 
L 936.094721 -178.241268 
L 936.089932 -179.614891 
L 936.075091 -180.988514 
L 936.041036 -182.362138 
L 935.978278 -183.735761 
L 935.88651 -185.109385 
L 935.784245 -186.483008 
L 935.707019 -187.856631 
L 935.68865 -189.230255 
L 935.737888 -190.603878 
L 935.831861 -191.977502 
L 935.932809 -193.351125 
L 936.011878 -194.724749 
L 936.060213 -196.098372 
L 936.134787 -196.098372 
L 936.134787 -196.098372 
L 936.183122 -194.724749 
L 936.262191 -193.351125 
L 936.363139 -191.977502 
L 936.457112 -190.603878 
L 936.50635 -189.230255 
L 936.487981 -187.856631 
L 936.410755 -186.483008 
L 936.30849 -185.109385 
L 936.216722 -183.735761 
L 936.153964 -182.362138 
L 936.119909 -180.988514 
L 936.105068 -179.614891 
L 936.100279 -178.241268 
L 936.100912 -176.867644 
L 936.107525 -175.494021 
L 936.12563 -174.120397 
L 936.164282 -172.746774 
L 936.231094 -171.373151 
L 936.323651 -169.999527 
L 936.423673 -168.625904 
L 936.502827 -167.25228 
L 936.54033 -165.878657 
L 936.538521 -164.505033 
L 936.52137 -163.13141 
L 936.517548 -161.757787 
L 936.544191 -160.384163 
L 936.60116 -159.01054 
L 936.671534 -157.636916 
L 936.725395 -156.263293 
L 936.732507 -154.88967 
L 936.682301 -153.516046 
L 936.59537 -152.142423 
L 936.514352 -150.768799 
L 936.480698 -149.395176 
L 936.51517 -148.021552 
L 936.614474 -146.647929 
L 936.761538 -145.274306 
L 936.93735 -143.900682 
L 937.127661 -142.527059 
L 937.327591 -141.153435 
L 937.544171 -139.779812 
L 937.78935 -138.406189 
L 938.065484 -137.032565 
L 938.362531 -135.658942 
L 938.678198 -134.285318 
L 939.039899 -132.911695 
L 939.494039 -131.538071 
L 940.058369 -130.164448 
L 940.676926 -128.790825 
L 941.22768 -127.417201 
L 941.597634 -126.043578 
L 941.783817 -124.669954 
L 941.941686 -123.296331 
L 942.323941 -121.922708 
L 943.134307 -120.549084 
L 944.393716 -119.175461 
L 945.909655 -117.801837 
L 947.376292 -116.428214 
L 948.569584 -115.05459 
L 949.530225 -113.680967 
L 950.57619 -112.307344 
L 952.082815 -110.93372 
L 954.200969 -109.560097 
L 956.783272 -108.186473 
L 959.580904 -106.81285 
L 962.484704 -105.439227 
L 965.559745 -104.065603 
L 968.880407 -102.69198 
L 972.405687 -101.318356 
L 976.080018 -99.944733 
L 980.063939 -98.57111 
L 984.802005 -97.197486 
L 990.75335 -95.823863 
L 997.952878 -94.450239 
L 1005.814745 -93.076616 
L 1013.454269 -91.702992 
L 1020.309986 -90.329369 
L 1026.436085 -88.955746 
L 1032.053624 -87.582122 
L 1036.736761 -86.208499 
L 1039.1235 -84.834875 
L 1037.592466 -83.461252 
L 1031.367786 -82.087629 
L 1021.09834 -80.714005 
L 1008.501134 -79.340382 
L 995.46419 -77.966758 
L 983.297088 -76.593135 
L 972.544003 -75.219511 
L 963.293235 -73.845888 
L 955.570504 -72.472265 
L 949.45423 -71.098641 
L 944.935471 -69.725018 
L 941.803011 -68.351394 
L 939.70673 -66.977771 
L 938.308232 -65.604148 
L 937.373926 -64.230524 
L 936.770189 -62.856901 
L 936.411893 -61.483277 
L 936.224978 -60.109654 
z
" style="stroke: #484848; stroke-width: 3"/>
    </defs>
    <g clip-path="url(#p1d1e38e9c2)">
     <use xlink:href="#m8c9e24a7d8" x="0" y="288" style="fill: #905998; stroke: #484848; stroke-width: 3"/>
    </g>
   </g>
   <g id="line2d_9">
    <path d="M 163.4025 218.984225 
L 163.4025 173.607729 
" clip-path="url(#p1d1e38e9c2)" style="fill: none; stroke: #484848; stroke-width: 3"/>
   </g>
   <g id="line2d_10">
    <path d="M 163.4025 202.738319 
L 163.4025 190.974042 
" clip-path="url(#p1d1e38e9c2)" style="fill: none; stroke: #484848; stroke-width: 9"/>
   </g>
   <g id="line2d_11">
    <path d="M 420.9675 204.338483 
L 420.9675 173.157463 
" clip-path="url(#p1d1e38e9c2)" style="fill: none; stroke: #484848; stroke-width: 3"/>
   </g>
   <g id="line2d_12">
    <path d="M 420.9675 204.338483 
L 420.9675 191.866075 
" clip-path="url(#p1d1e38e9c2)" style="fill: none; stroke: #484848; stroke-width: 9"/>
   </g>
   <g id="line2d_13">
    <path d="M 678.5325 239.80616 
L 678.5325 179.194518 
" clip-path="url(#p1d1e38e9c2)" style="fill: none; stroke: #484848; stroke-width: 3"/>
   </g>
   <g id="line2d_14">
    <path d="M 678.5325 206.194249 
L 678.5325 183.602637 
" clip-path="url(#p1d1e38e9c2)" style="fill: none; stroke: #484848; stroke-width: 9"/>
   </g>
   <g id="line2d_15">
    <path d="M 936.0975 221.553998 
L 936.0975 169.30609 
" clip-path="url(#p1d1e38e9c2)" style="fill: none; stroke: #484848; stroke-width: 3"/>
   </g>
   <g id="line2d_16">
    <path d="M 936.0975 205.27255 
L 936.0975 190.883397 
" clip-path="url(#p1d1e38e9c2)" style="fill: none; stroke: #484848; stroke-width: 9"/>
   </g>
   <g id="patch_3">
    <path d="M 34.62 255.833125 
L 34.62 44.24 
" style="fill: none; stroke: #f0f0f0; stroke-width: 3; stroke-linejoin: miter; stroke-linecap: square"/>
   </g>
   <g id="patch_4">
    <path d="M 1064.88 255.833125 
L 1064.88 44.24 
" style="fill: none; stroke: #f0f0f0; stroke-width: 3; stroke-linejoin: miter; stroke-linecap: square"/>
   </g>
   <g id="patch_5">
    <path d="M 34.62 255.833125 
L 1064.88 255.833125 
" style="fill: none; stroke: #f0f0f0; stroke-width: 3; stroke-linejoin: miter; stroke-linecap: square"/>
   </g>
   <g id="patch_6">
    <path d="M 34.62 44.24 
L 1064.88 44.24 
" style="fill: none; stroke: #f0f0f0; stroke-width: 3; stroke-linejoin: miter; stroke-linecap: square"/>
   </g>
   <g id="PathCollection_1">
    <defs>
     <path id="m8caf3c3af4" d="M 0 3 
C 0.795609 3 1.55874 2.683901 2.12132 2.12132 
C 2.683901 1.55874 3 0.795609 3 0 
C 3 -0.795609 2.683901 -1.55874 2.12132 -2.12132 
C 1.55874 -2.683901 0.795609 -3 0 -3 
C -0.795609 -3 -1.55874 -2.683901 -2.12132 -2.12132 
C -2.683901 -1.55874 -3 -0.795609 -3 0 
C -3 0.795609 -2.683901 1.55874 -2.12132 2.12132 
C -1.55874 2.683901 -0.795609 3 0 3 
z
" style="stroke: #484848; stroke-width: 0.5"/>
    </defs>
    <g clip-path="url(#p1d1e38e9c2)">
     <use xlink:href="#m8caf3c3af4" x="163.4025" y="197.136282" style="fill: #ffffff; stroke: #484848; stroke-width: 0.5"/>
    </g>
   </g>
   <g id="PathCollection_2">
    <g clip-path="url(#p1d1e38e9c2)">
     <use xlink:href="#m8caf3c3af4" x="420.9675" y="204.338483" style="fill: #ffffff; stroke: #484848; stroke-width: 0.5"/>
    </g>
   </g>
   <g id="PathCollection_3">
    <g clip-path="url(#p1d1e38e9c2)">
     <use xlink:href="#m8caf3c3af4" x="678.5325" y="195.724966" style="fill: #ffffff; stroke: #484848; stroke-width: 0.5"/>
    </g>
   </g>
   <g id="PathCollection_4">
    <g clip-path="url(#p1d1e38e9c2)">
     <use xlink:href="#m8caf3c3af4" x="936.0975" y="199.617069" style="fill: #ffffff; stroke: #484848; stroke-width: 0.5"/>
    </g>
   </g>
  </g>
  <g id="text_13">
   <!-- Violin Plot of all Continuous Variables -->
   <g style="fill: #262626" transform="translate(416.035547 16.496719)scale(0.15 -0.15)">
    <defs>
     <path id="ArialMT-20" transform="scale(0.015625)"/>
     <path id="ArialMT-66" d="M 556 0 
L 556 2881 
L 59 2881 
L 59 3319 
L 556 3319 
L 556 3672 
Q 556 4006 616 4169 
Q 697 4388 901 4523 
Q 1106 4659 1475 4659 
Q 1713 4659 2000 4603 
L 1916 4113 
Q 1741 4144 1584 4144 
Q 1328 4144 1222 4034 
Q 1116 3925 1116 3625 
L 1116 3319 
L 1763 3319 
L 1763 2881 
L 1116 2881 
L 1116 0 
L 556 0 
z
" transform="scale(0.015625)"/>
     <path id="ArialMT-43" d="M 3763 1606 
L 4369 1453 
Q 4178 706 3683 314 
Q 3188 -78 2472 -78 
Q 1731 -78 1267 223 
Q 803 525 561 1097 
Q 319 1669 319 2325 
Q 319 3041 592 3573 
Q 866 4106 1370 4382 
Q 1875 4659 2481 4659 
Q 3169 4659 3637 4309 
Q 4106 3959 4291 3325 
L 3694 3184 
Q 3534 3684 3231 3912 
Q 2928 4141 2469 4141 
Q 1941 4141 1586 3887 
Q 1231 3634 1087 3207 
Q 944 2781 944 2328 
Q 944 1744 1114 1308 
Q 1284 872 1643 656 
Q 2003 441 2422 441 
Q 2931 441 3284 734 
Q 3638 1028 3763 1606 
z
" transform="scale(0.015625)"/>
     <path id="ArialMT-75" d="M 2597 0 
L 2597 488 
Q 2209 -75 1544 -75 
Q 1250 -75 995 37 
Q 741 150 617 320 
Q 494 491 444 738 
Q 409 903 409 1263 
L 409 3319 
L 972 3319 
L 972 1478 
Q 972 1038 1006 884 
Q 1059 663 1231 536 
Q 1403 409 1656 409 
Q 1909 409 2131 539 
Q 2353 669 2445 892 
Q 2538 1116 2538 1541 
L 2538 3319 
L 3100 3319 
L 3100 0 
L 2597 0 
z
" transform="scale(0.015625)"/>
     <path id="ArialMT-62" d="M 941 0 
L 419 0 
L 419 4581 
L 981 4581 
L 981 2947 
Q 1338 3394 1891 3394 
Q 2197 3394 2470 3270 
Q 2744 3147 2920 2923 
Q 3097 2700 3197 2384 
Q 3297 2069 3297 1709 
Q 3297 856 2875 390 
Q 2453 -75 1863 -75 
Q 1275 -75 941 416 
L 941 0 
z
M 934 1684 
Q 934 1088 1097 822 
Q 1363 388 1816 388 
Q 2184 388 2453 708 
Q 2722 1028 2722 1663 
Q 2722 2313 2464 2622 
Q 2206 2931 1841 2931 
Q 1472 2931 1203 2611 
Q 934 2291 934 1684 
z
" transform="scale(0.015625)"/>
    </defs>
    <use xlink:href="#ArialMT-56"/>
    <use xlink:href="#ArialMT-69" x="64.949219"/>
    <use xlink:href="#ArialMT-6f" x="87.166016"/>
    <use xlink:href="#ArialMT-6c" x="142.78125"/>
    <use xlink:href="#ArialMT-69" x="164.998047"/>
    <use xlink:href="#ArialMT-6e" x="187.214844"/>
    <use xlink:href="#ArialMT-20" x="242.830078"/>
    <use xlink:href="#ArialMT-50" x="270.613281"/>
    <use xlink:href="#ArialMT-6c" x="337.3125"/>
    <use xlink:href="#ArialMT-6f" x="359.529297"/>
    <use xlink:href="#ArialMT-74" x="415.144531"/>
    <use xlink:href="#ArialMT-20" x="442.927734"/>
    <use xlink:href="#ArialMT-6f" x="470.710938"/>
    <use xlink:href="#ArialMT-66" x="526.326172"/>
    <use xlink:href="#ArialMT-20" x="554.109375"/>
    <use xlink:href="#ArialMT-61" x="581.892578"/>
    <use xlink:href="#ArialMT-6c" x="637.507812"/>
    <use xlink:href="#ArialMT-6c" x="659.724609"/>
    <use xlink:href="#ArialMT-20" x="681.941406"/>
    <use xlink:href="#ArialMT-43" x="709.724609"/>
    <use xlink:href="#ArialMT-6f" x="781.941406"/>
    <use xlink:href="#ArialMT-6e" x="837.556641"/>
    <use xlink:href="#ArialMT-74" x="893.171875"/>
    <use xlink:href="#ArialMT-69" x="920.955078"/>
    <use xlink:href="#ArialMT-6e" x="943.171875"/>
    <use xlink:href="#ArialMT-75" x="998.787109"/>
    <use xlink:href="#ArialMT-6f" x="1054.402344"/>
    <use xlink:href="#ArialMT-75" x="1110.017578"/>
    <use xlink:href="#ArialMT-73" x="1165.632812"/>
    <use xlink:href="#ArialMT-20" x="1215.632812"/>
    <use xlink:href="#ArialMT-56" x="1243.416016"/>
    <use xlink:href="#ArialMT-61" x="1302.740234"/>
    <use xlink:href="#ArialMT-72" x="1358.355469"/>
    <use xlink:href="#ArialMT-69" x="1391.65625"/>
    <use xlink:href="#ArialMT-61" x="1413.873047"/>
    <use xlink:href="#ArialMT-62" x="1469.488281"/>
    <use xlink:href="#ArialMT-6c" x="1525.103516"/>
    <use xlink:href="#ArialMT-65" x="1547.320312"/>
    <use xlink:href="#ArialMT-73" x="1602.935547"/>
   </g>
  </g>
 </g>
 <defs>
  <clipPath id="p1d1e38e9c2">
   <rect x="34.62" y="44.24" width="1030.26" height="211.593125"/>
  </clipPath>
 </defs>
</svg>
