<?xml version="1.0" encoding="utf-8" standalone="no"?>
<!DOCTYPE svg PUBLIC "-//W3C//DTD SVG 1.1//EN"
  "http://www.w3.org/Graphics/SVG/1.1/DTD/svg11.dtd">
<svg xmlns:xlink="http://www.w3.org/1999/xlink" width="1080pt" height="288pt" viewBox="0 0 1080 288" xmlns="http://www.w3.org/2000/svg" version="1.1">
 <metadata>
  <rdf:RDF xmlns:dc="http://purl.org/dc/elements/1.1/" xmlns:cc="http://creativecommons.org/ns#" xmlns:rdf="http://www.w3.org/1999/02/22-rdf-syntax-ns#">
   <cc:Work>
    <dc:type rdf:resource="http://purl.org/dc/dcmitype/StillImage"/>
    <dc:date>2023-02-18T22:05:31.808414</dc:date>
    <dc:format>image/svg+xml</dc:format>
    <dc:creator>
     <cc:Agent>
      <dc:title>Matplotlib v3.5.1, https://matplotlib.org/</dc:title>
     </cc:Agent>
    </dc:creator>
   </cc:Work>
  </rdf:RDF>
 </metadata>
 <defs>
  <style type="text/css">*{stroke-linejoin: round; stroke-linecap: butt}</style>
 </defs>
 <g id="figure_1">
  <g id="patch_1">
   <path d="M 0 288 
L 1080 288 
L 1080 0 
L 0 0 
z
" style="fill: #f0f0f0"/>
  </g>
  <g id="axes_1">
   <g id="patch_2">
    <path d="M 24.765 266.000625 
L 1071.36 266.000625 
L 1071.36 31.28 
L 24.765 31.28 
z
" style="fill: #f0f0f0"/>
   </g>
   <g id="matplotlib.axis_1">
    <g id="xtick_1">
     <g id="text_1">
      <!-- LotFrontage -->
      <g style="fill: #262626" transform="translate(134.02125 278.726875)scale(0.08 -0.08)">
       <defs>
        <path id="ArialMT-4c" d="M 469 0 
L 469 4581 
L 1075 4581 
L 1075 541 
L 3331 541 
L 3331 0 
L 469 0 
z
" transform="scale(0.015625)"/>
        <path id="ArialMT-6f" d="M 213 1659 
Q 213 2581 725 3025 
Q 1153 3394 1769 3394 
Q 2453 3394 2887 2945 
Q 3322 2497 3322 1706 
Q 3322 1066 3130 698 
Q 2938 331 2570 128 
Q 2203 -75 1769 -75 
Q 1072 -75 642 372 
Q 213 819 213 1659 
z
M 791 1659 
Q 791 1022 1069 705 
Q 1347 388 1769 388 
Q 2188 388 2466 706 
Q 2744 1025 2744 1678 
Q 2744 2294 2464 2611 
Q 2184 2928 1769 2928 
Q 1347 2928 1069 2612 
Q 791 2297 791 1659 
z
" transform="scale(0.015625)"/>
        <path id="ArialMT-74" d="M 1650 503 
L 1731 6 
Q 1494 -44 1306 -44 
Q 1000 -44 831 53 
Q 663 150 594 308 
Q 525 466 525 972 
L 525 2881 
L 113 2881 
L 113 3319 
L 525 3319 
L 525 4141 
L 1084 4478 
L 1084 3319 
L 1650 3319 
L 1650 2881 
L 1084 2881 
L 1084 941 
Q 1084 700 1114 631 
Q 1144 563 1211 522 
Q 1278 481 1403 481 
Q 1497 481 1650 503 
z
" transform="scale(0.015625)"/>
        <path id="ArialMT-46" d="M 525 0 
L 525 4581 
L 3616 4581 
L 3616 4041 
L 1131 4041 
L 1131 2622 
L 3281 2622 
L 3281 2081 
L 1131 2081 
L 1131 0 
L 525 0 
z
" transform="scale(0.015625)"/>
        <path id="ArialMT-72" d="M 416 0 
L 416 3319 
L 922 3319 
L 922 2816 
Q 1116 3169 1280 3281 
Q 1444 3394 1641 3394 
Q 1925 3394 2219 3213 
L 2025 2691 
Q 1819 2813 1613 2813 
Q 1428 2813 1281 2702 
Q 1134 2591 1072 2394 
Q 978 2094 978 1738 
L 978 0 
L 416 0 
z
" transform="scale(0.015625)"/>
        <path id="ArialMT-6e" d="M 422 0 
L 422 3319 
L 928 3319 
L 928 2847 
Q 1294 3394 1984 3394 
Q 2284 3394 2536 3286 
Q 2788 3178 2913 3003 
Q 3038 2828 3088 2588 
Q 3119 2431 3119 2041 
L 3119 0 
L 2556 0 
L 2556 2019 
Q 2556 2363 2490 2533 
Q 2425 2703 2258 2804 
Q 2091 2906 1866 2906 
Q 1506 2906 1245 2678 
Q 984 2450 984 1813 
L 984 0 
L 422 0 
z
" transform="scale(0.015625)"/>
        <path id="ArialMT-61" d="M 2588 409 
Q 2275 144 1986 34 
Q 1697 -75 1366 -75 
Q 819 -75 525 192 
Q 231 459 231 875 
Q 231 1119 342 1320 
Q 453 1522 633 1644 
Q 813 1766 1038 1828 
Q 1203 1872 1538 1913 
Q 2219 1994 2541 2106 
Q 2544 2222 2544 2253 
Q 2544 2597 2384 2738 
Q 2169 2928 1744 2928 
Q 1347 2928 1158 2789 
Q 969 2650 878 2297 
L 328 2372 
Q 403 2725 575 2942 
Q 747 3159 1072 3276 
Q 1397 3394 1825 3394 
Q 2250 3394 2515 3294 
Q 2781 3194 2906 3042 
Q 3031 2891 3081 2659 
Q 3109 2516 3109 2141 
L 3109 1391 
Q 3109 606 3145 398 
Q 3181 191 3288 0 
L 2700 0 
Q 2613 175 2588 409 
z
M 2541 1666 
Q 2234 1541 1622 1453 
Q 1275 1403 1131 1340 
Q 988 1278 909 1158 
Q 831 1038 831 891 
Q 831 666 1001 516 
Q 1172 366 1500 366 
Q 1825 366 2078 508 
Q 2331 650 2450 897 
Q 2541 1088 2541 1459 
L 2541 1666 
z
" transform="scale(0.015625)"/>
        <path id="ArialMT-67" d="M 319 -275 
L 866 -356 
Q 900 -609 1056 -725 
Q 1266 -881 1628 -881 
Q 2019 -881 2231 -725 
Q 2444 -569 2519 -288 
Q 2563 -116 2559 434 
Q 2191 0 1641 0 
Q 956 0 581 494 
Q 206 988 206 1678 
Q 206 2153 378 2554 
Q 550 2956 876 3175 
Q 1203 3394 1644 3394 
Q 2231 3394 2613 2919 
L 2613 3319 
L 3131 3319 
L 3131 450 
Q 3131 -325 2973 -648 
Q 2816 -972 2473 -1159 
Q 2131 -1347 1631 -1347 
Q 1038 -1347 672 -1080 
Q 306 -813 319 -275 
z
M 784 1719 
Q 784 1066 1043 766 
Q 1303 466 1694 466 
Q 2081 466 2343 764 
Q 2606 1063 2606 1700 
Q 2606 2309 2336 2618 
Q 2066 2928 1684 2928 
Q 1309 2928 1046 2623 
Q 784 2319 784 1719 
z
" transform="scale(0.015625)"/>
        <path id="ArialMT-65" d="M 2694 1069 
L 3275 997 
Q 3138 488 2766 206 
Q 2394 -75 1816 -75 
Q 1088 -75 661 373 
Q 234 822 234 1631 
Q 234 2469 665 2931 
Q 1097 3394 1784 3394 
Q 2450 3394 2872 2941 
Q 3294 2488 3294 1666 
Q 3294 1616 3291 1516 
L 816 1516 
Q 847 969 1125 678 
Q 1403 388 1819 388 
Q 2128 388 2347 550 
Q 2566 713 2694 1069 
z
M 847 1978 
L 2700 1978 
Q 2663 2397 2488 2606 
Q 2219 2931 1791 2931 
Q 1403 2931 1139 2672 
Q 875 2413 847 1978 
z
" transform="scale(0.015625)"/>
       </defs>
       <use xlink:href="#ArialMT-4c"/>
       <use xlink:href="#ArialMT-6f" x="55.615234"/>
       <use xlink:href="#ArialMT-74" x="111.230469"/>
       <use xlink:href="#ArialMT-46" x="139.013672"/>
       <use xlink:href="#ArialMT-72" x="200.097656"/>
       <use xlink:href="#ArialMT-6f" x="233.398438"/>
       <use xlink:href="#ArialMT-6e" x="289.013672"/>
       <use xlink:href="#ArialMT-74" x="344.628906"/>
       <use xlink:href="#ArialMT-61" x="372.412109"/>
       <use xlink:href="#ArialMT-67" x="428.027344"/>
       <use xlink:href="#ArialMT-65" x="483.642578"/>
      </g>
     </g>
    </g>
    <g id="xtick_2">
     <g id="text_2">
      <!-- MasVnrArea -->
      <g style="fill: #262626" transform="translate(395.00875 278.726875)scale(0.08 -0.08)">
       <defs>
        <path id="ArialMT-4d" d="M 475 0 
L 475 4581 
L 1388 4581 
L 2472 1338 
Q 2622 884 2691 659 
Q 2769 909 2934 1394 
L 4031 4581 
L 4847 4581 
L 4847 0 
L 4263 0 
L 4263 3834 
L 2931 0 
L 2384 0 
L 1059 3900 
L 1059 0 
L 475 0 
z
" transform="scale(0.015625)"/>
        <path id="ArialMT-73" d="M 197 991 
L 753 1078 
Q 800 744 1014 566 
Q 1228 388 1613 388 
Q 2000 388 2187 545 
Q 2375 703 2375 916 
Q 2375 1106 2209 1216 
Q 2094 1291 1634 1406 
Q 1016 1563 777 1677 
Q 538 1791 414 1992 
Q 291 2194 291 2438 
Q 291 2659 392 2848 
Q 494 3038 669 3163 
Q 800 3259 1026 3326 
Q 1253 3394 1513 3394 
Q 1903 3394 2198 3281 
Q 2494 3169 2634 2976 
Q 2775 2784 2828 2463 
L 2278 2388 
Q 2241 2644 2061 2787 
Q 1881 2931 1553 2931 
Q 1166 2931 1000 2803 
Q 834 2675 834 2503 
Q 834 2394 903 2306 
Q 972 2216 1119 2156 
Q 1203 2125 1616 2013 
Q 2213 1853 2448 1751 
Q 2684 1650 2818 1456 
Q 2953 1263 2953 975 
Q 2953 694 2789 445 
Q 2625 197 2315 61 
Q 2006 -75 1616 -75 
Q 969 -75 630 194 
Q 291 463 197 991 
z
" transform="scale(0.015625)"/>
        <path id="ArialMT-56" d="M 1803 0 
L 28 4581 
L 684 4581 
L 1875 1253 
Q 2019 853 2116 503 
Q 2222 878 2363 1253 
L 3600 4581 
L 4219 4581 
L 2425 0 
L 1803 0 
z
" transform="scale(0.015625)"/>
        <path id="ArialMT-41" d="M -9 0 
L 1750 4581 
L 2403 4581 
L 4278 0 
L 3588 0 
L 3053 1388 
L 1138 1388 
L 634 0 
L -9 0 
z
M 1313 1881 
L 2866 1881 
L 2388 3150 
Q 2169 3728 2063 4100 
Q 1975 3659 1816 3225 
L 1313 1881 
z
" transform="scale(0.015625)"/>
       </defs>
       <use xlink:href="#ArialMT-4d"/>
       <use xlink:href="#ArialMT-61" x="83.300781"/>
       <use xlink:href="#ArialMT-73" x="138.916016"/>
       <use xlink:href="#ArialMT-56" x="188.916016"/>
       <use xlink:href="#ArialMT-6e" x="255.615234"/>
       <use xlink:href="#ArialMT-72" x="311.230469"/>
       <use xlink:href="#ArialMT-41" x="344.53125"/>
       <use xlink:href="#ArialMT-72" x="411.230469"/>
       <use xlink:href="#ArialMT-65" x="444.53125"/>
       <use xlink:href="#ArialMT-61" x="500.146484"/>
      </g>
     </g>
    </g>
    <g id="xtick_3">
     <g id="text_3">
      <!-- GarageYrBlt -->
      <g style="fill: #262626" transform="translate(656.878125 278.824375)scale(0.08 -0.08)">
       <defs>
        <path id="ArialMT-47" d="M 2638 1797 
L 2638 2334 
L 4578 2338 
L 4578 638 
Q 4131 281 3656 101 
Q 3181 -78 2681 -78 
Q 2006 -78 1454 211 
Q 903 500 622 1047 
Q 341 1594 341 2269 
Q 341 2938 620 3517 
Q 900 4097 1425 4378 
Q 1950 4659 2634 4659 
Q 3131 4659 3532 4498 
Q 3934 4338 4162 4050 
Q 4391 3763 4509 3300 
L 3963 3150 
Q 3859 3500 3706 3700 
Q 3553 3900 3268 4020 
Q 2984 4141 2638 4141 
Q 2222 4141 1919 4014 
Q 1616 3888 1430 3681 
Q 1244 3475 1141 3228 
Q 966 2803 966 2306 
Q 966 1694 1177 1281 
Q 1388 869 1791 669 
Q 2194 469 2647 469 
Q 3041 469 3416 620 
Q 3791 772 3984 944 
L 3984 1797 
L 2638 1797 
z
" transform="scale(0.015625)"/>
        <path id="ArialMT-59" d="M 1784 0 
L 1784 1941 
L 19 4581 
L 756 4581 
L 1659 3200 
Q 1909 2813 2125 2425 
Q 2331 2784 2625 3234 
L 3513 4581 
L 4219 4581 
L 2391 1941 
L 2391 0 
L 1784 0 
z
" transform="scale(0.015625)"/>
        <path id="ArialMT-42" d="M 469 0 
L 469 4581 
L 2188 4581 
Q 2713 4581 3030 4442 
Q 3347 4303 3526 4014 
Q 3706 3725 3706 3409 
Q 3706 3116 3547 2856 
Q 3388 2597 3066 2438 
Q 3481 2316 3704 2022 
Q 3928 1728 3928 1328 
Q 3928 1006 3792 729 
Q 3656 453 3456 303 
Q 3256 153 2954 76 
Q 2653 0 2216 0 
L 469 0 
z
M 1075 2656 
L 2066 2656 
Q 2469 2656 2644 2709 
Q 2875 2778 2992 2937 
Q 3109 3097 3109 3338 
Q 3109 3566 3000 3739 
Q 2891 3913 2687 3977 
Q 2484 4041 1991 4041 
L 1075 4041 
L 1075 2656 
z
M 1075 541 
L 2216 541 
Q 2509 541 2628 563 
Q 2838 600 2978 687 
Q 3119 775 3209 942 
Q 3300 1109 3300 1328 
Q 3300 1584 3169 1773 
Q 3038 1963 2805 2039 
Q 2572 2116 2134 2116 
L 1075 2116 
L 1075 541 
z
" transform="scale(0.015625)"/>
        <path id="ArialMT-6c" d="M 409 0 
L 409 4581 
L 972 4581 
L 972 0 
L 409 0 
z
" transform="scale(0.015625)"/>
       </defs>
       <use xlink:href="#ArialMT-47"/>
       <use xlink:href="#ArialMT-61" x="77.783203"/>
       <use xlink:href="#ArialMT-72" x="133.398438"/>
       <use xlink:href="#ArialMT-61" x="166.699219"/>
       <use xlink:href="#ArialMT-67" x="222.314453"/>
       <use xlink:href="#ArialMT-65" x="277.929688"/>
       <use xlink:href="#ArialMT-59" x="333.544922"/>
       <use xlink:href="#ArialMT-72" x="400.244141"/>
       <use xlink:href="#ArialMT-42" x="433.544922"/>
       <use xlink:href="#ArialMT-6c" x="500.244141"/>
       <use xlink:href="#ArialMT-74" x="522.460938"/>
      </g>
     </g>
    </g>
    <g id="xtick_4">
     <g id="text_4">
      <!-- SalePrice -->
      <g style="fill: #262626" transform="translate(923.416875 278.726875)scale(0.08 -0.08)">
       <defs>
        <path id="ArialMT-53" d="M 288 1472 
L 859 1522 
Q 900 1178 1048 958 
Q 1197 738 1509 602 
Q 1822 466 2213 466 
Q 2559 466 2825 569 
Q 3091 672 3220 851 
Q 3350 1031 3350 1244 
Q 3350 1459 3225 1620 
Q 3100 1781 2813 1891 
Q 2628 1963 1997 2114 
Q 1366 2266 1113 2400 
Q 784 2572 623 2826 
Q 463 3081 463 3397 
Q 463 3744 659 4045 
Q 856 4347 1234 4503 
Q 1613 4659 2075 4659 
Q 2584 4659 2973 4495 
Q 3363 4331 3572 4012 
Q 3781 3694 3797 3291 
L 3216 3247 
Q 3169 3681 2898 3903 
Q 2628 4125 2100 4125 
Q 1550 4125 1298 3923 
Q 1047 3722 1047 3438 
Q 1047 3191 1225 3031 
Q 1400 2872 2139 2705 
Q 2878 2538 3153 2413 
Q 3553 2228 3743 1945 
Q 3934 1663 3934 1294 
Q 3934 928 3725 604 
Q 3516 281 3123 101 
Q 2731 -78 2241 -78 
Q 1619 -78 1198 103 
Q 778 284 539 648 
Q 300 1013 288 1472 
z
" transform="scale(0.015625)"/>
        <path id="ArialMT-50" d="M 494 0 
L 494 4581 
L 2222 4581 
Q 2678 4581 2919 4538 
Q 3256 4481 3484 4323 
Q 3713 4166 3852 3881 
Q 3991 3597 3991 3256 
Q 3991 2672 3619 2267 
Q 3247 1863 2275 1863 
L 1100 1863 
L 1100 0 
L 494 0 
z
M 1100 2403 
L 2284 2403 
Q 2872 2403 3119 2622 
Q 3366 2841 3366 3238 
Q 3366 3525 3220 3729 
Q 3075 3934 2838 4000 
Q 2684 4041 2272 4041 
L 1100 4041 
L 1100 2403 
z
" transform="scale(0.015625)"/>
        <path id="ArialMT-69" d="M 425 3934 
L 425 4581 
L 988 4581 
L 988 3934 
L 425 3934 
z
M 425 0 
L 425 3319 
L 988 3319 
L 988 0 
L 425 0 
z
" transform="scale(0.015625)"/>
        <path id="ArialMT-63" d="M 2588 1216 
L 3141 1144 
Q 3050 572 2676 248 
Q 2303 -75 1759 -75 
Q 1078 -75 664 370 
Q 250 816 250 1647 
Q 250 2184 428 2587 
Q 606 2991 970 3192 
Q 1334 3394 1763 3394 
Q 2303 3394 2647 3120 
Q 2991 2847 3088 2344 
L 2541 2259 
Q 2463 2594 2264 2762 
Q 2066 2931 1784 2931 
Q 1359 2931 1093 2626 
Q 828 2322 828 1663 
Q 828 994 1084 691 
Q 1341 388 1753 388 
Q 2084 388 2306 591 
Q 2528 794 2588 1216 
z
" transform="scale(0.015625)"/>
       </defs>
       <use xlink:href="#ArialMT-53"/>
       <use xlink:href="#ArialMT-61" x="66.699219"/>
       <use xlink:href="#ArialMT-6c" x="122.314453"/>
       <use xlink:href="#ArialMT-65" x="144.53125"/>
       <use xlink:href="#ArialMT-50" x="200.146484"/>
       <use xlink:href="#ArialMT-72" x="266.845703"/>
       <use xlink:href="#ArialMT-69" x="300.146484"/>
       <use xlink:href="#ArialMT-63" x="322.363281"/>
       <use xlink:href="#ArialMT-65" x="372.363281"/>
      </g>
     </g>
    </g>
   </g>
   <g id="matplotlib.axis_2">
    <g id="ytick_1">
     <g id="line2d_1">
      <path d="M 24.765 260.601203 
L 1071.36 260.601203 
" clip-path="url(#pf280d6fa67)" style="fill: none; stroke: #cbcbcb"/>
     </g>
     <g id="text_5">
      <!-- −4 -->
      <g style="fill: #262626" transform="translate(8.64375 263.464328)scale(0.08 -0.08)">
       <defs>
        <path id="ArialMT-2212" d="M 3381 1997 
L 356 1997 
L 356 2522 
L 3381 2522 
L 3381 1997 
z
" transform="scale(0.015625)"/>
        <path id="ArialMT-34" d="M 2069 0 
L 2069 1097 
L 81 1097 
L 81 1613 
L 2172 4581 
L 2631 4581 
L 2631 1613 
L 3250 1613 
L 3250 1097 
L 2631 1097 
L 2631 0 
L 2069 0 
z
M 2069 1613 
L 2069 3678 
L 634 1613 
L 2069 1613 
z
" transform="scale(0.015625)"/>
       </defs>
       <use xlink:href="#ArialMT-2212"/>
       <use xlink:href="#ArialMT-34" x="58.398438"/>
      </g>
     </g>
    </g>
    <g id="ytick_2">
     <g id="line2d_2">
      <path d="M 24.765 230.418419 
L 1071.36 230.418419 
" clip-path="url(#pf280d6fa67)" style="fill: none; stroke: #cbcbcb"/>
     </g>
     <g id="text_6">
      <!-- −2 -->
      <g style="fill: #262626" transform="translate(8.64375 233.281544)scale(0.08 -0.08)">
       <defs>
        <path id="ArialMT-32" d="M 3222 541 
L 3222 0 
L 194 0 
Q 188 203 259 391 
Q 375 700 629 1000 
Q 884 1300 1366 1694 
Q 2113 2306 2375 2664 
Q 2638 3022 2638 3341 
Q 2638 3675 2398 3904 
Q 2159 4134 1775 4134 
Q 1369 4134 1125 3890 
Q 881 3647 878 3216 
L 300 3275 
Q 359 3922 746 4261 
Q 1134 4600 1788 4600 
Q 2447 4600 2831 4234 
Q 3216 3869 3216 3328 
Q 3216 3053 3103 2787 
Q 2991 2522 2730 2228 
Q 2469 1934 1863 1422 
Q 1356 997 1212 845 
Q 1069 694 975 541 
L 3222 541 
z
" transform="scale(0.015625)"/>
       </defs>
       <use xlink:href="#ArialMT-2212"/>
       <use xlink:href="#ArialMT-32" x="58.398438"/>
      </g>
     </g>
    </g>
    <g id="ytick_3">
     <g id="line2d_3">
      <path d="M 24.765 200.235634 
L 1071.36 200.235634 
" clip-path="url(#pf280d6fa67)" style="fill: none; stroke: #cbcbcb"/>
     </g>
     <g id="text_7">
      <!-- 0 -->
      <g style="fill: #262626" transform="translate(13.31625 203.098759)scale(0.08 -0.08)">
       <defs>
        <path id="ArialMT-30" d="M 266 2259 
Q 266 3072 433 3567 
Q 600 4063 929 4331 
Q 1259 4600 1759 4600 
Q 2128 4600 2406 4451 
Q 2684 4303 2865 4023 
Q 3047 3744 3150 3342 
Q 3253 2941 3253 2259 
Q 3253 1453 3087 958 
Q 2922 463 2592 192 
Q 2263 -78 1759 -78 
Q 1097 -78 719 397 
Q 266 969 266 2259 
z
M 844 2259 
Q 844 1131 1108 757 
Q 1372 384 1759 384 
Q 2147 384 2411 759 
Q 2675 1134 2675 2259 
Q 2675 3391 2411 3762 
Q 2147 4134 1753 4134 
Q 1366 4134 1134 3806 
Q 844 3388 844 2259 
z
" transform="scale(0.015625)"/>
       </defs>
       <use xlink:href="#ArialMT-30"/>
      </g>
     </g>
    </g>
    <g id="ytick_4">
     <g id="line2d_4">
      <path d="M 24.765 170.052849 
L 1071.36 170.052849 
" clip-path="url(#pf280d6fa67)" style="fill: none; stroke: #cbcbcb"/>
     </g>
     <g id="text_8">
      <!-- 2 -->
      <g style="fill: #262626" transform="translate(13.31625 172.915974)scale(0.08 -0.08)">
       <use xlink:href="#ArialMT-32"/>
      </g>
     </g>
    </g>
    <g id="ytick_5">
     <g id="line2d_5">
      <path d="M 24.765 139.870064 
L 1071.36 139.870064 
" clip-path="url(#pf280d6fa67)" style="fill: none; stroke: #cbcbcb"/>
     </g>
     <g id="text_9">
      <!-- 4 -->
      <g style="fill: #262626" transform="translate(13.31625 142.733189)scale(0.08 -0.08)">
       <use xlink:href="#ArialMT-34"/>
      </g>
     </g>
    </g>
    <g id="ytick_6">
     <g id="line2d_6">
      <path d="M 24.765 109.687279 
L 1071.36 109.687279 
" clip-path="url(#pf280d6fa67)" style="fill: none; stroke: #cbcbcb"/>
     </g>
     <g id="text_10">
      <!-- 6 -->
      <g style="fill: #262626" transform="translate(13.31625 112.550404)scale(0.08 -0.08)">
       <defs>
        <path id="ArialMT-36" d="M 3184 3459 
L 2625 3416 
Q 2550 3747 2413 3897 
Q 2184 4138 1850 4138 
Q 1581 4138 1378 3988 
Q 1113 3794 959 3422 
Q 806 3050 800 2363 
Q 1003 2672 1297 2822 
Q 1591 2972 1913 2972 
Q 2475 2972 2870 2558 
Q 3266 2144 3266 1488 
Q 3266 1056 3080 686 
Q 2894 316 2569 119 
Q 2244 -78 1831 -78 
Q 1128 -78 684 439 
Q 241 956 241 2144 
Q 241 3472 731 4075 
Q 1159 4600 1884 4600 
Q 2425 4600 2770 4297 
Q 3116 3994 3184 3459 
z
M 888 1484 
Q 888 1194 1011 928 
Q 1134 663 1356 523 
Q 1578 384 1822 384 
Q 2178 384 2434 671 
Q 2691 959 2691 1453 
Q 2691 1928 2437 2201 
Q 2184 2475 1800 2475 
Q 1419 2475 1153 2201 
Q 888 1928 888 1484 
z
" transform="scale(0.015625)"/>
       </defs>
       <use xlink:href="#ArialMT-36"/>
      </g>
     </g>
    </g>
    <g id="ytick_7">
     <g id="line2d_7">
      <path d="M 24.765 79.504494 
L 1071.36 79.504494 
" clip-path="url(#pf280d6fa67)" style="fill: none; stroke: #cbcbcb"/>
     </g>
     <g id="text_11">
      <!-- 8 -->
      <g style="fill: #262626" transform="translate(13.31625 82.367619)scale(0.08 -0.08)">
       <defs>
        <path id="ArialMT-38" d="M 1131 2484 
Q 781 2613 612 2850 
Q 444 3088 444 3419 
Q 444 3919 803 4259 
Q 1163 4600 1759 4600 
Q 2359 4600 2725 4251 
Q 3091 3903 3091 3403 
Q 3091 3084 2923 2848 
Q 2756 2613 2416 2484 
Q 2838 2347 3058 2040 
Q 3278 1734 3278 1309 
Q 3278 722 2862 322 
Q 2447 -78 1769 -78 
Q 1091 -78 675 323 
Q 259 725 259 1325 
Q 259 1772 486 2073 
Q 713 2375 1131 2484 
z
M 1019 3438 
Q 1019 3113 1228 2906 
Q 1438 2700 1772 2700 
Q 2097 2700 2305 2904 
Q 2513 3109 2513 3406 
Q 2513 3716 2298 3927 
Q 2084 4138 1766 4138 
Q 1444 4138 1231 3931 
Q 1019 3725 1019 3438 
z
M 838 1322 
Q 838 1081 952 856 
Q 1066 631 1291 507 
Q 1516 384 1775 384 
Q 2178 384 2440 643 
Q 2703 903 2703 1303 
Q 2703 1709 2433 1975 
Q 2163 2241 1756 2241 
Q 1359 2241 1098 1978 
Q 838 1716 838 1322 
z
" transform="scale(0.015625)"/>
       </defs>
       <use xlink:href="#ArialMT-38"/>
      </g>
     </g>
    </g>
    <g id="ytick_8">
     <g id="line2d_8">
      <path d="M 24.765 49.321709 
L 1071.36 49.321709 
" clip-path="url(#pf280d6fa67)" style="fill: none; stroke: #cbcbcb"/>
     </g>
     <g id="text_12">
      <!-- 10 -->
      <g style="fill: #262626" transform="translate(8.8675 52.184834)scale(0.08 -0.08)">
       <defs>
        <path id="ArialMT-31" d="M 2384 0 
L 1822 0 
L 1822 3584 
Q 1619 3391 1289 3197 
Q 959 3003 697 2906 
L 697 3450 
Q 1169 3672 1522 3987 
Q 1875 4303 2022 4600 
L 2384 4600 
L 2384 0 
z
" transform="scale(0.015625)"/>
       </defs>
       <use xlink:href="#ArialMT-31"/>
       <use xlink:href="#ArialMT-30" x="55.615234"/>
      </g>
     </g>
    </g>
   </g>
   <g id="PolyCollection_1">
    <defs>
     <path id="m7f20e3573a" d="M 156.70406 -49.974132 
L 154.47469 -49.974132 
L 152.53802 -51.954705 
L 149.216639 -53.935279 
L 145.286947 -55.915852 
L 142.275758 -57.896425 
L 140.871046 -59.876998 
L 140.056006 -61.857571 
L 138.397189 -63.838145 
L 135.512974 -65.818718 
L 131.600507 -67.799291 
L 126.212484 -69.779864 
L 118.403142 -71.760438 
L 107.885002 -73.741011 
L 95.150395 -75.721584 
L 80.756436 -77.702157 
L 66.284741 -79.68273 
L 55.389651 -81.663304 
L 50.929875 -83.643877 
L 51.68374 -85.62445 
L 54.3335 -87.605023 
L 57.441301 -89.585597 
L 62.039379 -91.56617 
L 69.647543 -93.546743 
L 80.438005 -95.527316 
L 92.829697 -97.507889 
L 104.682119 -99.488463 
L 114.672177 -101.469036 
L 122.54041 -103.449609 
L 128.647295 -105.430182 
L 133.563842 -107.410755 
L 137.75754 -109.391329 
L 141.402643 -111.371902 
L 144.385546 -113.352475 
L 146.524046 -115.333048 
L 147.911319 -117.313622 
L 148.958081 -119.294195 
L 149.987913 -121.274768 
L 150.983761 -123.255341 
L 151.809688 -125.235914 
L 152.446687 -127.216488 
L 152.95351 -129.197061 
L 153.365541 -131.177634 
L 153.674337 -133.158207 
L 153.872167 -135.138781 
L 154.017588 -137.119354 
L 154.210039 -139.099927 
L 154.47376 -141.0805 
L 154.726102 -143.061073 
L 154.87138 -145.041647 
L 154.881162 -147.02222 
L 154.802784 -149.002793 
L 154.729453 -150.983366 
L 154.741801 -152.963939 
L 154.854602 -154.944513 
L 155.027248 -156.925086 
L 155.212401 -158.905659 
L 155.374883 -160.886232 
L 155.490301 -162.866806 
L 155.55356 -164.847379 
L 155.579474 -166.827952 
L 155.587309 -168.808525 
L 155.589051 -170.789098 
L 155.589337 -172.769672 
L 155.589372 -174.750245 
L 155.589375 -176.730818 
L 155.589375 -178.711391 
L 155.589375 -180.691965 
L 155.589375 -182.672538 
L 155.589375 -184.653111 
L 155.589375 -186.633684 
L 155.589375 -188.614257 
L 155.589375 -190.594831 
L 155.589375 -192.575404 
L 155.589375 -194.555977 
L 155.589375 -196.53655 
L 155.589375 -198.517123 
L 155.589375 -200.497697 
L 155.589375 -202.47827 
L 155.589375 -204.458843 
L 155.589375 -206.439416 
L 155.589375 -208.41999 
L 155.589375 -210.400563 
L 155.589375 -212.381136 
L 155.589375 -214.361709 
L 155.589375 -216.342282 
L 155.589375 -218.322856 
L 155.589373 -220.303429 
L 155.589353 -222.284002 
L 155.589154 -224.264575 
L 155.587742 -226.245149 
L 155.580378 -228.225722 
L 155.552425 -230.206295 
L 155.47624 -232.186868 
L 155.331141 -234.167441 
L 155.149969 -236.148015 
L 155.03199 -238.128588 
L 155.062288 -240.109161 
L 155.2178 -242.089734 
L 155.3941 -244.070307 
L 155.512871 -246.050881 
L 155.665879 -246.050881 
L 155.665879 -246.050881 
L 155.78465 -244.070307 
L 155.96095 -242.089734 
L 156.116462 -240.109161 
L 156.14676 -238.128588 
L 156.028781 -236.148015 
L 155.847609 -234.167441 
L 155.70251 -232.186868 
L 155.626325 -230.206295 
L 155.598372 -228.225722 
L 155.591008 -226.245149 
L 155.589596 -224.264575 
L 155.589397 -222.284002 
L 155.589377 -220.303429 
L 155.589375 -218.322856 
L 155.589375 -216.342282 
L 155.589375 -214.361709 
L 155.589375 -212.381136 
L 155.589375 -210.400563 
L 155.589375 -208.41999 
L 155.589375 -206.439416 
L 155.589375 -204.458843 
L 155.589375 -202.47827 
L 155.589375 -200.497697 
L 155.589375 -198.517123 
L 155.589375 -196.53655 
L 155.589375 -194.555977 
L 155.589375 -192.575404 
L 155.589375 -190.594831 
L 155.589375 -188.614257 
L 155.589375 -186.633684 
L 155.589375 -184.653111 
L 155.589375 -182.672538 
L 155.589375 -180.691965 
L 155.589375 -178.711391 
L 155.589375 -176.730818 
L 155.589378 -174.750245 
L 155.589413 -172.769672 
L 155.589699 -170.789098 
L 155.591441 -168.808525 
L 155.599276 -166.827952 
L 155.62519 -164.847379 
L 155.688449 -162.866806 
L 155.803867 -160.886232 
L 155.966349 -158.905659 
L 156.151502 -156.925086 
L 156.324148 -154.944513 
L 156.436949 -152.963939 
L 156.449297 -150.983366 
L 156.375966 -149.002793 
L 156.297588 -147.02222 
L 156.30737 -145.041647 
L 156.452648 -143.061073 
L 156.70499 -141.0805 
L 156.968711 -139.099927 
L 157.161162 -137.119354 
L 157.306583 -135.138781 
L 157.504413 -133.158207 
L 157.813209 -131.177634 
L 158.22524 -129.197061 
L 158.732063 -127.216488 
L 159.369062 -125.235914 
L 160.194989 -123.255341 
L 161.190837 -121.274768 
L 162.220669 -119.294195 
L 163.267431 -117.313622 
L 164.654704 -115.333048 
L 166.793204 -113.352475 
L 169.776107 -111.371902 
L 173.42121 -109.391329 
L 177.614908 -107.410755 
L 182.531455 -105.430182 
L 188.63834 -103.449609 
L 196.506573 -101.469036 
L 206.496631 -99.488463 
L 218.349053 -97.507889 
L 230.740745 -95.527316 
L 241.531207 -93.546743 
L 249.139371 -91.56617 
L 253.737449 -89.585597 
L 256.84525 -87.605023 
L 259.49501 -85.62445 
L 260.248875 -83.643877 
L 255.789099 -81.663304 
L 244.894009 -79.68273 
L 230.422314 -77.702157 
L 216.028355 -75.721584 
L 203.293748 -73.741011 
L 192.775608 -71.760438 
L 184.966266 -69.779864 
L 179.578243 -67.799291 
L 175.665776 -65.818718 
L 172.781561 -63.838145 
L 171.122744 -61.857571 
L 170.307704 -59.876998 
L 168.902992 -57.896425 
L 165.891803 -55.915852 
L 161.962111 -53.935279 
L 158.64073 -51.954705 
L 156.70406 -49.974132 
z
" style="stroke: #484848; stroke-width: 3"/>
    </defs>
    <g clip-path="url(#pf280d6fa67)">
     <use xlink:href="#m7f20e3573a" x="0" y="288" style="fill: #cb3335; stroke: #484848; stroke-width: 3"/>
    </g>
   </g>
   <g id="PolyCollection_2">
    <defs>
     <path id="m3dd95e6774" d="M 430.821984 -72.085822 
L 403.654266 -72.085822 
L 388.186233 -73.575005 
L 365.216056 -75.064187 
L 339.159802 -76.55337 
L 318.81202 -78.042553 
L 312.578625 -79.531736 
L 322.510066 -81.020918 
L 342.802068 -82.510101 
L 364.301171 -83.999284 
L 380.480924 -85.488467 
L 389.81496 -86.97765 
L 394.113721 -88.466832 
L 395.824438 -89.956015 
L 396.607155 -91.445198 
L 397.260177 -92.934381 
L 398.079277 -94.423564 
L 399.09873 -95.912746 
L 400.20921 -97.401929 
L 401.27143 -98.891112 
L 402.219592 -100.380295 
L 403.091627 -101.869478 
L 403.984424 -103.35866 
L 404.988927 -104.847843 
L 406.145937 -106.337026 
L 407.422248 -107.826209 
L 408.703171 -109.315391 
L 409.825599 -110.804574 
L 410.66595 -112.293757 
L 411.230312 -113.78294 
L 411.659277 -115.272123 
L 412.128378 -116.761305 
L 412.726486 -118.250488 
L 413.409802 -119.739671 
L 414.05205 -121.228854 
L 414.535484 -122.718037 
L 414.815617 -124.207219 
L 414.928689 -125.696402 
L 414.953405 -127.185585 
L 414.964235 -128.674768 
L 415.010361 -130.16395 
L 415.12189 -131.653133 
L 415.314629 -133.142316 
L 415.575482 -134.631499 
L 415.849429 -136.120682 
L 416.059875 -137.609864 
L 416.157857 -139.099047 
L 416.158589 -140.58823 
L 416.131276 -142.077413 
L 416.149653 -143.566596 
L 416.243359 -145.055778 
L 416.38639 -146.544961 
L 416.525573 -148.034144 
L 416.620818 -149.523327 
L 416.666286 -151.01251 
L 416.683904 -152.501692 
L 416.702525 -153.990875 
L 416.739991 -155.480058 
L 416.796399 -156.969241 
L 416.858071 -158.458423 
L 416.9077 -159.947606 
L 416.934693 -161.436789 
L 416.940586 -162.925972 
L 416.936708 -164.415155 
L 416.934857 -165.904337 
L 416.937576 -167.39352 
L 416.937787 -168.882703 
L 416.929492 -170.371886 
L 416.917947 -171.861069 
L 416.917597 -173.350251 
L 416.940506 -174.839434 
L 416.98763 -176.328617 
L 417.049384 -177.8178 
L 417.112024 -179.306983 
L 417.16411 -180.796165 
L 417.200049 -182.285348 
L 417.219951 -183.774531 
L 417.226621 -185.263714 
L 417.222186 -186.752896 
L 417.207087 -188.242079 
L 417.182389 -189.731262 
L 417.153368 -191.220445 
L 417.130205 -192.709628 
L 417.123229 -194.19881 
L 417.135861 -195.687993 
L 417.162027 -197.177176 
L 417.190745 -198.666359 
L 417.213265 -200.155542 
L 417.226421 -201.644724 
L 417.230853 -203.133907 
L 417.227421 -204.62309 
L 417.215424 -206.112273 
L 417.194009 -207.601456 
L 417.165692 -209.090638 
L 417.138592 -210.579821 
L 417.123773 -212.069004 
L 417.128294 -213.558187 
L 417.149939 -215.047369 
L 417.178932 -216.536552 
L 417.20491 -218.025735 
L 417.222544 -219.514918 
L 417.253706 -219.514918 
L 417.253706 -219.514918 
L 417.27134 -218.025735 
L 417.297318 -216.536552 
L 417.326311 -215.047369 
L 417.347956 -213.558187 
L 417.352477 -212.069004 
L 417.337658 -210.579821 
L 417.310558 -209.090638 
L 417.282241 -207.601456 
L 417.260826 -206.112273 
L 417.248829 -204.62309 
L 417.245397 -203.133907 
L 417.249829 -201.644724 
L 417.262985 -200.155542 
L 417.285505 -198.666359 
L 417.314223 -197.177176 
L 417.340389 -195.687993 
L 417.353021 -194.19881 
L 417.346045 -192.709628 
L 417.322882 -191.220445 
L 417.293861 -189.731262 
L 417.269163 -188.242079 
L 417.254064 -186.752896 
L 417.249629 -185.263714 
L 417.256299 -183.774531 
L 417.276201 -182.285348 
L 417.31214 -180.796165 
L 417.364226 -179.306983 
L 417.426866 -177.8178 
L 417.48862 -176.328617 
L 417.535744 -174.839434 
L 417.558653 -173.350251 
L 417.558303 -171.861069 
L 417.546758 -170.371886 
L 417.538463 -168.882703 
L 417.538674 -167.39352 
L 417.541393 -165.904337 
L 417.539542 -164.415155 
L 417.535664 -162.925972 
L 417.541557 -161.436789 
L 417.56855 -159.947606 
L 417.618179 -158.458423 
L 417.679851 -156.969241 
L 417.736259 -155.480058 
L 417.773725 -153.990875 
L 417.792346 -152.501692 
L 417.809964 -151.01251 
L 417.855432 -149.523327 
L 417.950677 -148.034144 
L 418.08986 -146.544961 
L 418.232891 -145.055778 
L 418.326597 -143.566596 
L 418.344974 -142.077413 
L 418.317661 -140.58823 
L 418.318393 -139.099047 
L 418.416375 -137.609864 
L 418.626821 -136.120682 
L 418.900768 -134.631499 
L 419.161621 -133.142316 
L 419.35436 -131.653133 
L 419.465889 -130.16395 
L 419.512015 -128.674768 
L 419.522845 -127.185585 
L 419.547561 -125.696402 
L 419.660633 -124.207219 
L 419.940766 -122.718037 
L 420.4242 -121.228854 
L 421.066448 -119.739671 
L 421.749764 -118.250488 
L 422.347872 -116.761305 
L 422.816973 -115.272123 
L 423.245938 -113.78294 
L 423.8103 -112.293757 
L 424.650651 -110.804574 
L 425.773079 -109.315391 
L 427.054002 -107.826209 
L 428.330313 -106.337026 
L 429.487323 -104.847843 
L 430.491826 -103.35866 
L 431.384623 -101.869478 
L 432.256658 -100.380295 
L 433.20482 -98.891112 
L 434.26704 -97.401929 
L 435.37752 -95.912746 
L 436.396973 -94.423564 
L 437.216073 -92.934381 
L 437.869095 -91.445198 
L 438.651812 -89.956015 
L 440.362529 -88.466832 
L 444.66129 -86.97765 
L 453.995326 -85.488467 
L 470.175079 -83.999284 
L 491.674182 -82.510101 
L 511.966184 -81.020918 
L 521.897625 -79.531736 
L 515.66423 -78.042553 
L 495.316448 -76.55337 
L 469.260194 -75.064187 
L 446.290017 -73.575005 
L 430.821984 -72.085822 
z
" style="stroke: #484848; stroke-width: 3"/>
    </defs>
    <g clip-path="url(#pf280d6fa67)">
     <use xlink:href="#m3dd95e6774" x="0" y="288" style="fill: #477ca8; stroke: #484848; stroke-width: 3"/>
    </g>
   </g>
   <g id="PolyCollection_3">
    <defs>
     <path id="mf88418d31f" d="M 678.9226 -32.668494 
L 678.85115 -32.668494 
L 678.829569 -33.491281 
L 678.798748 -34.314067 
L 678.756515 -35.136853 
L 678.700654 -35.959639 
L 678.628791 -36.782426 
L 678.538113 -37.605212 
L 678.424954 -38.427998 
L 678.284344 -39.250785 
L 678.109634 -40.073571 
L 677.892246 -40.896357 
L 677.62155 -41.719144 
L 677.284812 -42.54193 
L 676.867293 -43.364716 
L 676.352721 -44.187502 
L 675.724567 -45.010289 
L 674.968496 -45.833075 
L 674.076119 -46.655861 
L 673.049559 -47.478648 
L 671.905762 -48.301434 
L 670.679073 -49.12422 
L 669.42068 -49.947006 
L 668.194161 -50.769793 
L 667.067426 -51.592579 
L 666.102403 -52.415365 
L 665.344572 -53.238152 
L 664.81462 -54.060938 
L 664.504037 -54.883724 
L 664.375671 -55.706511 
L 664.369322 -56.529297 
L 664.411578 -57.352083 
L 664.428299 -58.174869 
L 664.357331 -58.997656 
L 664.158403 -59.820442 
L 663.817043 -60.643228 
L 663.340348 -61.466015 
L 662.744746 -62.288801 
L 662.03898 -63.111587 
L 661.208228 -63.934373 
L 660.205897 -64.75716 
L 658.957483 -65.579946 
L 657.37651 -66.402732 
L 655.387719 -67.225519 
L 652.94984 -68.048305 
L 650.070669 -68.871091 
L 646.810432 -69.693878 
L 643.27387 -70.516664 
L 639.594776 -71.33945 
L 635.917924 -72.162236 
L 632.382361 -72.985023 
L 629.108397 -73.807809 
L 626.189073 -74.630595 
L 623.68611 -75.453382 
L 621.629855 -76.276168 
L 620.022296 -77.098954 
L 618.841834 -77.92174 
L 618.048668 -78.744527 
L 617.590517 -79.567313 
L 617.409649 -80.390099 
L 617.45261 -81.212886 
L 617.682805 -82.035672 
L 618.093251 -82.858458 
L 618.713865 -83.681244 
L 619.606837 -84.504031 
L 620.846465 -85.326817 
L 622.48595 -86.149603 
L 624.520385 -86.97239 
L 626.859075 -87.795176 
L 629.318687 -88.617962 
L 631.641834 -89.440749 
L 633.536351 -90.263535 
L 634.723021 -91.086321 
L 634.977129 -91.909107 
L 634.152765 -92.731894 
L 632.186197 -93.55468 
L 629.082669 -94.377466 
L 624.896519 -95.200253 
L 619.716159 -96.023039 
L 613.66314 -96.845825 
L 606.909172 -97.668611 
L 599.707712 -98.491398 
L 592.429027 -99.314184 
L 585.581534 -100.13697 
L 579.800627 -100.959757 
L 575.79171 -101.782543 
L 574.227375 -102.605329 
L 575.616464 -103.428116 
L 580.178373 -104.250902 
L 587.761819 -105.073688 
L 597.838552 -105.896474 
L 609.580878 -106.719261 
L 622.005183 -107.542047 
L 634.14276 -108.364833 
L 645.192528 -109.18762 
L 654.61965 -110.010406 
L 662.184435 -110.833192 
L 667.908277 -111.655978 
L 671.999158 -112.478765 
L 674.76444 -113.301551 
L 676.534004 -114.124337 
L 681.239746 -114.124337 
L 681.239746 -114.124337 
L 683.00931 -113.301551 
L 685.774592 -112.478765 
L 689.865473 -111.655978 
L 695.589315 -110.833192 
L 703.1541 -110.010406 
L 712.581222 -109.18762 
L 723.63099 -108.364833 
L 735.768567 -107.542047 
L 748.192872 -106.719261 
L 759.935198 -105.896474 
L 770.011931 -105.073688 
L 777.595377 -104.250902 
L 782.157286 -103.428116 
L 783.546375 -102.605329 
L 781.98204 -101.782543 
L 777.973123 -100.959757 
L 772.192216 -100.13697 
L 765.344723 -99.314184 
L 758.066038 -98.491398 
L 750.864578 -97.668611 
L 744.11061 -96.845825 
L 738.057591 -96.023039 
L 732.877231 -95.200253 
L 728.691081 -94.377466 
L 725.587553 -93.55468 
L 723.620985 -92.731894 
L 722.796621 -91.909107 
L 723.050729 -91.086321 
L 724.237399 -90.263535 
L 726.131916 -89.440749 
L 728.455063 -88.617962 
L 730.914675 -87.795176 
L 733.253365 -86.97239 
L 735.2878 -86.149603 
L 736.927285 -85.326817 
L 738.166913 -84.504031 
L 739.059885 -83.681244 
L 739.680499 -82.858458 
L 740.090945 -82.035672 
L 740.32114 -81.212886 
L 740.364101 -80.390099 
L 740.183233 -79.567313 
L 739.725082 -78.744527 
L 738.931916 -77.92174 
L 737.751454 -77.098954 
L 736.143895 -76.276168 
L 734.08764 -75.453382 
L 731.584677 -74.630595 
L 728.665353 -73.807809 
L 725.391389 -72.985023 
L 721.855826 -72.162236 
L 718.178974 -71.33945 
L 714.49988 -70.516664 
L 710.963318 -69.693878 
L 707.703081 -68.871091 
L 704.82391 -68.048305 
L 702.386031 -67.225519 
L 700.39724 -66.402732 
L 698.816267 -65.579946 
L 697.567853 -64.75716 
L 696.565522 -63.934373 
L 695.73477 -63.111587 
L 695.029004 -62.288801 
L 694.433402 -61.466015 
L 693.956707 -60.643228 
L 693.615347 -59.820442 
L 693.416419 -58.997656 
L 693.345451 -58.174869 
L 693.362172 -57.352083 
L 693.404428 -56.529297 
L 693.398079 -55.706511 
L 693.269713 -54.883724 
L 692.95913 -54.060938 
L 692.429178 -53.238152 
L 691.671347 -52.415365 
L 690.706324 -51.592579 
L 689.579589 -50.769793 
L 688.35307 -49.947006 
L 687.094677 -49.12422 
L 685.867988 -48.301434 
L 684.724191 -47.478648 
L 683.697631 -46.655861 
L 682.805254 -45.833075 
L 682.049183 -45.010289 
L 681.421029 -44.187502 
L 680.906457 -43.364716 
L 680.488938 -42.54193 
L 680.1522 -41.719144 
L 679.881504 -40.896357 
L 679.664116 -40.073571 
L 679.489406 -39.250785 
L 679.348796 -38.427998 
L 679.235637 -37.605212 
L 679.144959 -36.782426 
L 679.073096 -35.959639 
L 679.017235 -35.136853 
L 678.975002 -34.314067 
L 678.944181 -33.491281 
L 678.9226 -32.668494 
z
" style="stroke: #484848; stroke-width: 3"/>
    </defs>
    <g clip-path="url(#pf280d6fa67)">
     <use xlink:href="#mf88418d31f" x="0" y="288" style="fill: #59a257; stroke: #484848; stroke-width: 3"/>
    </g>
   </g>
   <g id="PolyCollection_4">
    <defs>
     <path id="m2fc8f13351" d="M 940.665124 -52.996349 
L 940.406126 -52.996349 
L 940.216247 -54.520112 
L 939.85227 -56.043874 
L 939.238961 -57.567637 
L 938.289842 -59.0914 
L 936.86917 -60.615163 
L 934.739652 -62.138926 
L 931.557526 -63.662689 
L 926.967121 -65.186452 
L 920.753872 -66.710214 
L 912.908695 -68.233977 
L 903.511255 -69.75774 
L 892.587677 -71.281503 
L 880.227663 -72.805266 
L 866.984016 -74.329029 
L 854.187078 -75.852792 
L 843.754808 -77.376555 
L 837.431434 -78.900317 
L 835.876125 -80.42408 
L 838.300706 -81.947843 
L 843.058095 -83.471606 
L 848.764702 -84.995369 
L 854.987931 -86.519132 
L 861.952348 -88.042895 
L 869.712998 -89.566657 
L 877.699516 -91.09042 
L 885.013194 -92.614183 
L 891.058899 -94.137946 
L 895.872088 -95.661709 
L 899.919176 -97.185472 
L 903.651764 -98.709235 
L 907.232938 -100.232998 
L 910.60625 -101.75676 
L 913.730046 -103.280523 
L 916.679886 -104.804286 
L 919.521875 -106.328049 
L 922.145122 -107.851812 
L 924.296859 -109.375575 
L 925.827372 -110.899338 
L 926.889922 -112.4231 
L 927.865794 -113.946863 
L 929.078006 -115.470626 
L 930.567896 -116.994389 
L 932.107871 -118.518152 
L 933.387248 -120.041915 
L 934.210462 -121.565678 
L 934.598779 -123.08944 
L 934.75915 -124.613203 
L 934.948285 -126.136966 
L 935.324105 -127.660729 
L 935.883592 -129.184492 
L 936.511956 -130.708255 
L 937.085234 -132.232018 
L 937.546574 -133.755781 
L 937.914009 -135.279543 
L 938.234681 -136.803306 
L 938.536438 -138.327069 
L 938.81695 -139.850832 
L 939.066017 -141.374595 
L 939.286031 -142.898358 
L 939.489131 -144.422121 
L 939.682459 -145.945883 
L 939.861058 -147.469646 
L 940.010454 -148.993409 
L 940.111333 -150.517172 
L 940.146352 -152.040935 
L 940.112164 -153.564698 
L 940.029861 -155.088461 
L 939.941552 -156.612224 
L 939.89055 -158.135986 
L 939.897774 -159.659749 
L 939.952489 -161.183512 
L 940.023979 -162.707275 
L 940.081852 -164.231038 
L 940.108917 -165.754801 
L 940.105035 -167.278564 
L 940.087612 -168.802326 
L 940.085774 -170.326089 
L 940.123872 -171.849852 
L 940.204281 -173.373615 
L 940.305888 -174.897378 
L 940.399913 -176.421141 
L 940.467784 -177.944904 
L 940.507049 -179.468667 
L 940.525441 -180.992429 
L 940.532159 -182.516192 
L 940.532802 -184.039955 
L 940.527937 -185.563718 
L 940.512861 -187.087481 
L 940.478266 -188.611244 
L 940.414513 -190.135007 
L 940.32129 -191.658769 
L 940.217403 -193.182532 
L 940.138953 -194.706295 
L 940.120292 -196.230058 
L 940.170311 -197.753821 
L 940.265774 -199.277584 
L 940.368322 -200.801347 
L 940.448646 -202.32511 
L 940.497747 -203.848872 
L 940.573503 -203.848872 
L 940.573503 -203.848872 
L 940.622604 -202.32511 
L 940.702928 -200.801347 
L 940.805476 -199.277584 
L 940.900939 -197.753821 
L 940.950958 -196.230058 
L 940.932297 -194.706295 
L 940.853847 -193.182532 
L 940.74996 -191.658769 
L 940.656737 -190.135007 
L 940.592984 -188.611244 
L 940.558389 -187.087481 
L 940.543313 -185.563718 
L 940.538448 -184.039955 
L 940.539091 -182.516192 
L 940.545809 -180.992429 
L 940.564201 -179.468667 
L 940.603466 -177.944904 
L 940.671337 -176.421141 
L 940.765362 -174.897378 
L 940.866969 -173.373615 
L 940.947378 -171.849852 
L 940.985476 -170.326089 
L 940.983638 -168.802326 
L 940.966215 -167.278564 
L 940.962333 -165.754801 
L 940.989398 -164.231038 
L 941.047271 -162.707275 
L 941.118761 -161.183512 
L 941.173476 -159.659749 
L 941.1807 -158.135986 
L 941.129698 -156.612224 
L 941.041389 -155.088461 
L 940.959086 -153.564698 
L 940.924898 -152.040935 
L 940.959917 -150.517172 
L 941.060796 -148.993409 
L 941.210192 -147.469646 
L 941.388791 -145.945883 
L 941.582119 -144.422121 
L 941.785219 -142.898358 
L 942.005233 -141.374595 
L 942.2543 -139.850832 
L 942.534812 -138.327069 
L 942.836569 -136.803306 
L 943.157241 -135.279543 
L 943.524676 -133.755781 
L 943.986016 -132.232018 
L 944.559294 -130.708255 
L 945.187658 -129.184492 
L 945.747145 -127.660729 
L 946.122965 -126.136966 
L 946.3121 -124.613203 
L 946.472471 -123.08944 
L 946.860788 -121.565678 
L 947.684002 -120.041915 
L 948.963379 -118.518152 
L 950.503354 -116.994389 
L 951.993244 -115.470626 
L 953.205456 -113.946863 
L 954.181328 -112.4231 
L 955.243878 -110.899338 
L 956.774391 -109.375575 
L 958.926128 -107.851812 
L 961.549375 -106.328049 
L 964.391364 -104.804286 
L 967.341204 -103.280523 
L 970.465 -101.75676 
L 973.838312 -100.232998 
L 977.419486 -98.709235 
L 981.152074 -97.185472 
L 985.199162 -95.661709 
L 990.012351 -94.137946 
L 996.058056 -92.614183 
L 1003.371734 -91.09042 
L 1011.358252 -89.566657 
L 1019.118902 -88.042895 
L 1026.083319 -86.519132 
L 1032.306548 -84.995369 
L 1038.013155 -83.471606 
L 1042.770544 -81.947843 
L 1045.195125 -80.42408 
L 1043.639816 -78.900317 
L 1037.316442 -77.376555 
L 1026.884172 -75.852792 
L 1014.087234 -74.329029 
L 1000.843587 -72.805266 
L 988.483573 -71.281503 
L 977.559995 -69.75774 
L 968.162555 -68.233977 
L 960.317378 -66.710214 
L 954.104129 -65.186452 
L 949.513724 -63.662689 
L 946.331598 -62.138926 
L 944.20208 -60.615163 
L 942.781408 -59.0914 
L 941.832289 -57.567637 
L 941.21898 -56.043874 
L 940.855003 -54.520112 
L 940.665124 -52.996349 
z
" style="stroke: #484848; stroke-width: 3"/>
    </defs>
    <g clip-path="url(#pf280d6fa67)">
     <use xlink:href="#m2fc8f13351" x="0" y="288" style="fill: #905998; stroke: #484848; stroke-width: 3"/>
    </g>
   </g>
   <g id="line2d_9">
    <path d="M 155.589375 225.124076 
L 155.589375 174.787848 
" clip-path="url(#pf280d6fa67)" style="fill: none; stroke: #484848; stroke-width: 3"/>
   </g>
   <g id="line2d_10">
    <path d="M 155.589375 207.102463 
L 155.589375 194.05233 
" clip-path="url(#pf280d6fa67)" style="fill: none; stroke: #484848; stroke-width: 9"/>
   </g>
   <g id="line2d_11">
    <path d="M 417.238125 208.877528 
L 417.238125 174.288368 
" clip-path="url(#pf280d6fa67)" style="fill: none; stroke: #484848; stroke-width: 3"/>
   </g>
   <g id="line2d_12">
    <path d="M 417.238125 208.877528 
L 417.238125 195.041864 
" clip-path="url(#pf280d6fa67)" style="fill: none; stroke: #484848; stroke-width: 9"/>
   </g>
   <g id="line2d_13">
    <path d="M 678.886875 248.221885 
L 678.886875 180.985284 
" clip-path="url(#pf280d6fa67)" style="fill: none; stroke: #484848; stroke-width: 3"/>
   </g>
   <g id="line2d_14">
    <path d="M 678.886875 210.936133 
L 678.886875 185.875218 
" clip-path="url(#pf280d6fa67)" style="fill: none; stroke: #484848; stroke-width: 9"/>
   </g>
   <g id="line2d_15">
    <path d="M 940.535625 227.974729 
L 940.535625 170.016034 
" clip-path="url(#pf280d6fa67)" style="fill: none; stroke: #484848; stroke-width: 3"/>
   </g>
   <g id="line2d_16">
    <path d="M 940.535625 209.91369 
L 940.535625 193.951778 
" clip-path="url(#pf280d6fa67)" style="fill: none; stroke: #484848; stroke-width: 9"/>
   </g>
   <g id="patch_3">
    <path d="M 24.765 266.000625 
L 24.765 31.28 
" style="fill: none; stroke: #f0f0f0; stroke-width: 3; stroke-linejoin: miter; stroke-linecap: square"/>
   </g>
   <g id="patch_4">
    <path d="M 1071.36 266.000625 
L 1071.36 31.28 
" style="fill: none; stroke: #f0f0f0; stroke-width: 3; stroke-linejoin: miter; stroke-linecap: square"/>
   </g>
   <g id="patch_5">
    <path d="M 24.765 266.000625 
L 1071.36 266.000625 
" style="fill: none; stroke: #f0f0f0; stroke-width: 3; stroke-linejoin: miter; stroke-linecap: square"/>
   </g>
   <g id="patch_6">
    <path d="M 24.765 31.28 
L 1071.36 31.28 
" style="fill: none; stroke: #f0f0f0; stroke-width: 3; stroke-linejoin: miter; stroke-linecap: square"/>
   </g>
   <g id="PathCollection_1">
    <defs>
     <path id="m581c69bad5" d="M 0 3 
C 0.795609 3 1.55874 2.683901 2.12132 2.12132 
C 2.683901 1.55874 3 0.795609 3 0 
C 3 -0.795609 2.683901 -1.55874 2.12132 -2.12132 
C 1.55874 -2.683901 0.795609 -3 0 -3 
C -0.795609 -3 -1.55874 -2.683901 -2.12132 -2.12132 
C -2.683901 -1.55874 -3 -0.795609 -3 0 
C -3 0.795609 -2.683901 1.55874 -2.12132 2.12132 
C -1.55874 2.683901 -0.795609 3 0 3 
z
" style="stroke: #484848; stroke-width: 0.5"/>
    </defs>
    <g clip-path="url(#pf280d6fa67)">
     <use xlink:href="#m581c69bad5" x="155.589375" y="200.888114" style="fill: #ffffff; stroke: #484848; stroke-width: 0.5"/>
    </g>
   </g>
   <g id="PathCollection_2">
    <g clip-path="url(#pf280d6fa67)">
     <use xlink:href="#m581c69bad5" x="417.238125" y="208.877528" style="fill: #ffffff; stroke: #484848; stroke-width: 0.5"/>
    </g>
   </g>
   <g id="PathCollection_3">
    <g clip-path="url(#pf280d6fa67)">
     <use xlink:href="#m581c69bad5" x="678.886875" y="199.322539" style="fill: #ffffff; stroke: #484848; stroke-width: 0.5"/>
    </g>
   </g>
   <g id="PathCollection_4">
    <g clip-path="url(#pf280d6fa67)">
     <use xlink:href="#m581c69bad5" x="940.535625" y="203.640056" style="fill: #ffffff; stroke: #484848; stroke-width: 0.5"/>
    </g>
   </g>
  </g>
  <g id="text_13">
   <!-- Violin Plot of all Continuous Variables -->
   <g style="fill: #262626" transform="translate(416.035547 16.496719)scale(0.15 -0.15)">
    <defs>
     <path id="ArialMT-20" transform="scale(0.015625)"/>
     <path id="ArialMT-66" d="M 556 0 
L 556 2881 
L 59 2881 
L 59 3319 
L 556 3319 
L 556 3672 
Q 556 4006 616 4169 
Q 697 4388 901 4523 
Q 1106 4659 1475 4659 
Q 1713 4659 2000 4603 
L 1916 4113 
Q 1741 4144 1584 4144 
Q 1328 4144 1222 4034 
Q 1116 3925 1116 3625 
L 1116 3319 
L 1763 3319 
L 1763 2881 
L 1116 2881 
L 1116 0 
L 556 0 
z
" transform="scale(0.015625)"/>
     <path id="ArialMT-43" d="M 3763 1606 
L 4369 1453 
Q 4178 706 3683 314 
Q 3188 -78 2472 -78 
Q 1731 -78 1267 223 
Q 803 525 561 1097 
Q 319 1669 319 2325 
Q 319 3041 592 3573 
Q 866 4106 1370 4382 
Q 1875 4659 2481 4659 
Q 3169 4659 3637 4309 
Q 4106 3959 4291 3325 
L 3694 3184 
Q 3534 3684 3231 3912 
Q 2928 4141 2469 4141 
Q 1941 4141 1586 3887 
Q 1231 3634 1087 3207 
Q 944 2781 944 2328 
Q 944 1744 1114 1308 
Q 1284 872 1643 656 
Q 2003 441 2422 441 
Q 2931 441 3284 734 
Q 3638 1028 3763 1606 
z
" transform="scale(0.015625)"/>
     <path id="ArialMT-75" d="M 2597 0 
L 2597 488 
Q 2209 -75 1544 -75 
Q 1250 -75 995 37 
Q 741 150 617 320 
Q 494 491 444 738 
Q 409 903 409 1263 
L 409 3319 
L 972 3319 
L 972 1478 
Q 972 1038 1006 884 
Q 1059 663 1231 536 
Q 1403 409 1656 409 
Q 1909 409 2131 539 
Q 2353 669 2445 892 
Q 2538 1116 2538 1541 
L 2538 3319 
L 3100 3319 
L 3100 0 
L 2597 0 
z
" transform="scale(0.015625)"/>
     <path id="ArialMT-62" d="M 941 0 
L 419 0 
L 419 4581 
L 981 4581 
L 981 2947 
Q 1338 3394 1891 3394 
Q 2197 3394 2470 3270 
Q 2744 3147 2920 2923 
Q 3097 2700 3197 2384 
Q 3297 2069 3297 1709 
Q 3297 856 2875 390 
Q 2453 -75 1863 -75 
Q 1275 -75 941 416 
L 941 0 
z
M 934 1684 
Q 934 1088 1097 822 
Q 1363 388 1816 388 
Q 2184 388 2453 708 
Q 2722 1028 2722 1663 
Q 2722 2313 2464 2622 
Q 2206 2931 1841 2931 
Q 1472 2931 1203 2611 
Q 934 2291 934 1684 
z
" transform="scale(0.015625)"/>
    </defs>
    <use xlink:href="#ArialMT-56"/>
    <use xlink:href="#ArialMT-69" x="64.949219"/>
    <use xlink:href="#ArialMT-6f" x="87.166016"/>
    <use xlink:href="#ArialMT-6c" x="142.78125"/>
    <use xlink:href="#ArialMT-69" x="164.998047"/>
    <use xlink:href="#ArialMT-6e" x="187.214844"/>
    <use xlink:href="#ArialMT-20" x="242.830078"/>
    <use xlink:href="#ArialMT-50" x="270.613281"/>
    <use xlink:href="#ArialMT-6c" x="337.3125"/>
    <use xlink:href="#ArialMT-6f" x="359.529297"/>
    <use xlink:href="#ArialMT-74" x="415.144531"/>
    <use xlink:href="#ArialMT-20" x="442.927734"/>
    <use xlink:href="#ArialMT-6f" x="470.710938"/>
    <use xlink:href="#ArialMT-66" x="526.326172"/>
    <use xlink:href="#ArialMT-20" x="554.109375"/>
    <use xlink:href="#ArialMT-61" x="581.892578"/>
    <use xlink:href="#ArialMT-6c" x="637.507812"/>
    <use xlink:href="#ArialMT-6c" x="659.724609"/>
    <use xlink:href="#ArialMT-20" x="681.941406"/>
    <use xlink:href="#ArialMT-43" x="709.724609"/>
    <use xlink:href="#ArialMT-6f" x="781.941406"/>
    <use xlink:href="#ArialMT-6e" x="837.556641"/>
    <use xlink:href="#ArialMT-74" x="893.171875"/>
    <use xlink:href="#ArialMT-69" x="920.955078"/>
    <use xlink:href="#ArialMT-6e" x="943.171875"/>
    <use xlink:href="#ArialMT-75" x="998.787109"/>
    <use xlink:href="#ArialMT-6f" x="1054.402344"/>
    <use xlink:href="#ArialMT-75" x="1110.017578"/>
    <use xlink:href="#ArialMT-73" x="1165.632812"/>
    <use xlink:href="#ArialMT-20" x="1215.632812"/>
    <use xlink:href="#ArialMT-56" x="1243.416016"/>
    <use xlink:href="#ArialMT-61" x="1302.740234"/>
    <use xlink:href="#ArialMT-72" x="1358.355469"/>
    <use xlink:href="#ArialMT-69" x="1391.65625"/>
    <use xlink:href="#ArialMT-61" x="1413.873047"/>
    <use xlink:href="#ArialMT-62" x="1469.488281"/>
    <use xlink:href="#ArialMT-6c" x="1525.103516"/>
    <use xlink:href="#ArialMT-65" x="1547.320312"/>
    <use xlink:href="#ArialMT-73" x="1602.935547"/>
   </g>
  </g>
 </g>
 <defs>
  <clipPath id="pf280d6fa67">
   <rect x="24.765" y="31.28" width="1046.595" height="234.720625"/>
  </clipPath>
 </defs>
</svg>
